<?xml version="1.0" encoding="UTF-8" standalone="no"?>
<!-- Created with Inkscape (http://www.inkscape.org/) -->

<svg
   width="200.57626mm"
   height="65.654388mm"
   viewBox="0 0 200.57626 65.654388"
   version="1.1"
   id="svg1"
   xml:space="preserve"
   sodipodi:docname="franklin-mountains-cloud-del-norte-v1-wide.svg"
   inkscape:version="1.4.4 (dcaf3e7, 2026-05-05)"
   xmlns:inkscape="http://www.inkscape.org/namespaces/inkscape"
   xmlns:sodipodi="http://sodipodi.sourceforge.net/DTD/sodipodi-0.dtd"
   xmlns="http://www.w3.org/2000/svg"
   xmlns:svg="http://www.w3.org/2000/svg"><sodipodi:namedview
     id="namedview1"
     pagecolor="#ffffff"
     bordercolor="#000000"
     borderopacity="0.25"
     inkscape:showpageshadow="2"
     inkscape:pageopacity="0.0"
     inkscape:pagecheckerboard="0"
     inkscape:deskcolor="#d1d1d1"
     inkscape:document-units="mm"
     inkscape:zoom="1.7161698"
     inkscape:cx="379.04176"
     inkscape:cy="50.402939"
     inkscape:window-width="1881"
     inkscape:window-height="1022"
     inkscape:window-x="1165"
     inkscape:window-y="286"
     inkscape:window-maximized="0"
     inkscape:current-layer="svg1" /><defs
     id="defs1"><inkscape:path-effect
       effect="perspective-envelope"
       up_left_point="67.378526,66.405"
       up_right_point="146.86219,60.959585"
       down_left_point="47.921637,160.25106"
       down_right_point="169.49485,146.22103"
       id="path-effect2"
       is_visible="true"
       lpeversion="1"
       deform_type="perspective"
       horizontal_mirror="false"
       vertical_mirror="false"
       overflow_perspective="false" /><inkscape:path-effect
       effect="envelope"
       id="path-effect1"
       is_visible="true"
       lpeversion="1"
       yy="true"
       xx="true"
       bendpath1="M 19.129816,37.976505 H 188.64791"
       bendpath2="M 188.64791,37.976505 V 184.54687"
       bendpath3="M 19.129816,184.54687 H 188.64791"
       bendpath4="M 19.129816,37.976505 V 184.54687" /></defs><g
     inkscape:groupmode="layer"
     id="layer3"
     inkscape:label="Layer 2"
     transform="translate(-6.162179,-5.7736824)"><path
       id="path1"
       style="display:inline;fill:#00002a;fill-opacity:1;stroke-width:0.264583"
       inkscape:label="franklin_mountains"
       d="m 134.68198,7.6278328 -5.1e-4,5.168e-4 -5.2e-4,0.012919 c 4.4e-4,-0.00447 9.9e-4,-0.00906 0.001,-0.013436 z m 0.74828,4.5614782 c -0.0252,0.0056 -0.0533,0.0088 -0.0848,0.0088 h -0.28164 -0.37672 -0.10129 l -0.0258,1.221631 -4.69636,2.807581 -3.10885,2.177128 -5.59501,1.551843 -3.39204,0.675928 -1.61489,-0.677478 -0.0217,-0.627352 c -0.14401,-0.01119 -0.28813,-0.02194 -0.43253,-0.02687 -0.13584,-2e-4 -0.27189,-1.97e-4 -0.40773,-0.001 -0.0539,-5.33e-4 -0.1079,-0.0011 -0.16175,-0.0021 l -0.0279,0.711584 -1.34669,0.748275 -0.79789,-0.113171 -0.10335,-1.502751 -3.09697,0.04186 0.0274,1.428336 -0.32918,0.182935 -2.12235,1.491899 -2.33267,1.463993 -1.51257,0.719336 -1.65003,0.420646 -0.9586,0.459403 -0.52296,0.380339 -1.282613,1.168921 -1.393197,0.613399 -3.350183,0.344682 -3.188436,-0.137459 -0.12299,-2.028817 -2.615861,0.0072 -0.0072,0.90227 -3.307292,0.0739 -0.03204,1.503785 -0.540536,0.125057 -2.033984,1.220597 -3.711918,1.971456 -2.294951,0.606681 -2.464966,0.111621 -1.126546,0.129708 -0.465088,0.109554 -0.30024,0.07751 -3.708817,2.317688 -6.937561,4.510836 -3.233911,1.591634 -6.844027,1.382344 -5.27358,2.210718 -12.810071,6.967533 -6.211507,4.985743 -5.135604,4.25452 -3.590478,2.075842 -2.872176,1.70894 -9.2051233,6.575309 -0.1322917,0.316777 200.576391,-1.723926 -0.51832,-0.7922 -3.55792,-4.570263 -2.35438,-2.776058 -2.44119,-2.324406 -2.66651,-2.367298 -4.48034,-3.389457 -2.78846,-2.547131 -2.98845,-3.041158 -2.09496,-2.327507 -2.00092,-1.861901 -1.45314,-1.14515 -2.14405,-1.034046 -1.8433,-0.99167 -1.61902,-1.203544 -1.7601,-1.833997 -2.06809,-2.673739 -1.90015,-2.41949 -0.41031,-0.447518 -2.51302,-1.977657 -6.89415,-4.420919 -3.47783,-2.255159 -3.68349,-3.426665 -3.32022,-1.42937 -4.28707,-1.962671 -4.80798,-3.025655 0.0238,-0.72192 -1.38286,0.02687 -0.0258,-0.56689 c -0.0253,5e-5 -0.0506,-5.5e-5 -0.076,0 -0.16914,3.01e-4 -0.33831,4.61e-4 -0.50746,5.16e-4 -0.19535,4.7e-5 -0.39066,-1.1e-5 -0.58601,0 -0.13499,7e-6 -0.26963,-10e-7 -0.40463,0 -0.0922,0.0036 -0.1843,-6.53e-4 -0.27595,-0.0088 z m -20.27008,6.710185 c 0.009,0.02773 0.0223,0.0444 0.0393,0.05426 -0.0175,-0.01409 -0.0312,-0.03217 -0.0393,-0.05426 z m -0.0181,0.0584 -5.2e-4,0.01654 c 0.009,1.39e-4 0.0173,3.86e-4 0.0258,5.17e-4 -0.009,-0.0051 -0.0178,-0.0111 -0.0253,-0.01705 z" /></g><g
     inkscape:groupmode="layer"
     id="layer2"
     inkscape:label="cloud_del_norte_star"
     style="display:inline;opacity:0.5578635"
     transform="matrix(0.20090081,0,0,0.20090081,57.494834,10.714544)"
     inkscape:path-effect="#path-effect2"><g
       id="g7"
       inkscape:label="diamonds"
       style="display:inline"><path
         style="fill:#9060f0;fill-opacity:1;stroke-width:0.264583"
         d="m 106.28706,63.739382 -3.72013,8.048525 4.24525,5.923413 3.4537,-7.450458 z"
         id="path1-0"
         inkscape:label="diamond_top"
         inkscape:original-d="m 100.35291,37.976505 -7.880123,18.608487 8.354833,13.766482 7.40542,-15.997602 z" /><path
         style="display:inline;fill:#9060f0;fill-opacity:1;stroke-width:0.264583"
         d="m 132.21209,129.19176 2.73204,11.70423 13.84505,7.71456 -7.41131,-15.35299 z"
         id="path14"
         inkscape:label="diamond_lower_right"
         inkscape:original-d="m 138.1125,159.41146 1.85208,14.68437 18.25625,10.45104 -7.01146,-18.78541 z" /><path
         style="display:inline;fill:#f3ede2;fill-opacity:1;stroke-width:0.264583"
         d="m 137.41425,133.57377 c 0.34786,1.07636 0.7488,2.03977 1.31756,2.60328 0.64466,0.49067 1.30144,0.59827 1.95721,0.77574 -0.60018,0.24865 -1.26798,0.35979 -1.58354,1.2103 -0.55858,0.40969 -0.46742,1.63907 -0.50884,2.71256 -0.41472,-0.95536 -0.61895,-2.14609 -1.27633,-2.7955 -0.73672,-0.48179 -1.35355,-0.40808 -2.0114,-0.5287 0.66867,-0.34922 1.32458,-0.70913 1.74963,-1.31648 0.26338,-0.74024 0.37123,-1.6393 0.35571,-2.6612 z"
         id="path9-4"
         sodipodi:nodetypes="ccccccccc"
         clip-path="none"
         inkscape:label="sparkle_lower_right"
         inkscape:original-d="m 145.14049,165.62917 c 0.28862,1.37085 0.67901,2.59922 1.4056,3.3569 0.8529,0.67644 1.80827,0.89172 2.74506,1.19063 -0.95165,0.22 -1.97093,0.2661 -2.6293,1.24023 -0.91731,0.41403 -1.04852,1.8762 -1.33945,3.12539 -0.40592,-1.16952 -0.45382,-2.59941 -1.28985,-3.45612 -0.99305,-0.67091 -1.92438,-0.66303 -2.87734,-0.89296 1.06449,-0.33157 2.1154,-0.67865 2.87734,-1.35599 0.55219,-0.86363 0.90844,-1.94769 1.10794,-3.20808 z" /><path
         style="display:inline;fill:#9060f0;fill-opacity:1;stroke-width:0.264583"
         d="m 83.430464,135.5434 -1.936014,11.25695 -10.945233,7.7136 5.525727,-15.27438 z"
         id="path13"
         inkscape:label="diamond_lower_left"
         inkscape:original-d="m 64.161458,160.99896 -1.455209,13.09687 -14.155208,7.14375 5.291667,-16.66875 z" /><path
         style="fill:#f3ede2;fill-opacity:1;stroke-width:0.264583"
         d="m 78.921168,139.74739 c 0.08724,1.13827 0.258164,2.15732 0.704452,2.75331 0.543455,0.51895 1.196687,0.63248 1.831161,0.81997 -0.684923,0.26352 -1.405072,0.38152 -1.947854,1.2821 -0.682866,0.43411 -0.900512,1.73607 -1.216072,2.87333 -0.18725,-1.01189 -0.09652,-2.2729 -0.61288,-2.96019 -0.64106,-0.50968 -1.298993,-0.43132 -1.950047,-0.55866 0.781658,-0.37005 1.552746,-0.75135 2.147385,-1.39437 0.460779,-0.78344 0.800664,-1.73465 1.043855,-2.81549 z"
         id="path9"
         sodipodi:nodetypes="ccccccccc"
         clip-path="none"
         inkscape:label="sparkle_lower_left"
         inkscape:original-d="m 58.076042,165.54648 c 0.288618,1.37085 0.679004,2.59922 1.405599,3.3569 0.852893,0.67644 1.808265,0.89172 2.745052,1.19063 -0.951647,0.22 -1.970923,0.2661 -2.629297,1.24023 -0.917309,0.41403 -1.048517,1.8762 -1.339453,3.12539 -0.405912,-1.16952 -0.453816,-2.59941 -1.289844,-3.45612 -0.993047,-0.67091 -1.924386,-0.66303 -2.877344,-0.89296 1.06449,-0.33157 2.115406,-0.67865 2.877344,-1.35599 0.552185,-0.86363 0.908436,-1.94769 1.107943,-3.20808 z" /><path
         style="display:inline;fill:#9060f0;fill-opacity:1;stroke-width:0.264583"
         d="m 61.74107,93.596041 7.73228,5.851718 6.241355,-3.307329 -5.581111,-3.741373 z"
         id="path12"
         inkscape:label="diamond_upper_left"
         inkscape:original-d="m 19.129816,94.713638 15.575132,11.552722 10.102787,-4.8643 -10.991459,-7.623867 z" /><path
         style="display:inline;fill:#f3ede2;fill-opacity:1;stroke-width:0.264583"
         d="m 70.160125,93.295245 c 0.03776,0.747786 0.146722,1.41642 0.490871,1.808027 0.424787,0.341165 0.950263,0.417379 1.458221,0.541881 -0.56233,0.170158 -1.144427,0.467686 -1.687121,0.956173 -0.527951,0.337808 -0.704752,1.003583 -0.99176,1.741951 -0.122562,-0.658329 -0.01364,-1.47918 -0.41172,-1.92895 -0.504301,-0.334628 -1.1224,-0.107737 -1.561865,-0.370581 0.642438,-0.23935 1.495967,-0.223618 1.776492,-0.905057 0.395526,-0.511637 0.698338,-1.134336 0.926882,-1.843444 z"
         id="path7"
         sodipodi:nodetypes="ccccccccc"
         clip-path="none"
         inkscape:label="sparkle_upper_left"
         inkscape:original-d="m 34.13125,95.4319 c 0.288618,1.370848 0.679004,2.59922 1.405599,3.356901 0.852893,0.676434 1.808265,0.891713 2.745052,1.190625 -0.951647,0.220004 -1.900765,0.663664 -2.722841,1.450704 -0.835458,0.51927 -0.954973,1.66573 -1.245909,2.91492 -0.405912,-1.16952 -0.453816,-2.59941 -1.289844,-3.45612 -0.993047,-0.67091 -2.01793,-0.35901 -2.877344,-0.892968 1.06449,-0.331567 2.583128,-0.175847 2.877344,-1.355989 0.552185,-0.863628 0.908436,-1.947682 1.107943,-3.208073 z" /><path
         style="display:inline;fill:#9060f0;fill-opacity:1;stroke-width:0.264583"
         d="m 137.91066,86.647589 4.26741,-5.69523 9.63531,-1.340716 -7.47914,8.523074 z"
         id="path11"
         inkscape:label="diamond_upper_right"
         inkscape:original-d="m 158.88229,93.397915 10.31875,-10.583333 19.44687,-1.190625 -18.25625,15.610417 z" /><path
         style="display:inline;fill:#faf6ee;fill-opacity:1;stroke-width:0.264583"
         d="m 142.92104,81.671395 c 0.29082,0.657714 0.83667,1.345675 1.2902,1.690537 0.51093,0.300505 1.06726,-0.238265 1.57936,-0.128919 -0.24686,0.431482 -1.08948,0.526405 -1.32013,1.039631 -0.42667,0.245566 -0.0447,1.292808 -0.0571,1.940755 -0.33975,-0.578102 -0.74326,-1.304912 -1.26655,-1.700548 -0.58242,-0.29465 -1.06104,-0.251999 -1.57544,-0.327382 0.51355,-0.209725 1.01731,-0.426118 1.33684,-0.79391 0.19133,-0.449669 0.0434,-1.096762 0.0128,-1.720181 z"
         id="path10"
         sodipodi:nodetypes="ccccccccc"
         clip-path="none"
         inkscape:label="sparkle_upper_right"
         inkscape:original-d="m 170.34537,84.392685 c 0.28862,1.37085 1.05319,2.833081 1.77978,3.590761 0.8529,0.67644 2.1527,-0.302924 3.08949,-0.004 -0.66227,0.815312 -2.3182,0.868707 -2.97657,1.842837 -0.91731,0.41403 -0.62473,2.51496 -0.91566,3.76415 -0.40592,-1.16952 -0.87477,-2.646182 -1.7108,-3.502892 -0.99305,-0.67091 -1.92438,-0.66303 -2.87734,-0.89296 1.06449,-0.33157 2.1154,-0.67865 2.87734,-1.35599 0.55219,-0.86363 0.53426,-2.181551 0.73376,-3.441941 z" /><path
         style="display:inline;fill:#f3ede2;fill-opacity:1;stroke-width:0.264583"
         d="m 106.48524,68.966313 c 0.1523,0.573352 0.54239,1.557144 0.90546,1.859213 0.42514,0.2633 1.17262,0.360577 1.63565,0.457395 -0.463,0.129702 -1.73732,0.394441 -2.05091,0.845244 -0.44826,0.215273 -0.39808,1.028722 -0.53113,1.596824 -0.21174,-0.507273 -0.41228,-1.208236 -0.83126,-1.55577 -0.49365,-0.259113 -1.33844,-0.542229 -1.80804,-0.608743 0.52245,-0.18268 1.45107,-0.379583 1.82015,-0.700725 0.26384,-0.392987 0.77438,-1.350281 0.86008,-1.893438 z"
         id="path8"
         sodipodi:nodetypes="ccccccccc"
         clip-path="none"
         inkscape:label="sparkle_top"
         inkscape:original-d="m 100.54302,50.697764 c 0.28862,1.370848 1.04281,3.723699 1.7694,4.48138 0.85289,0.676434 2.37051,1.024005 3.30729,1.322917 -0.95164,0.220004 -3.55842,0.613369 -4.21679,1.587499 -0.91731,0.41403 -0.85008,2.256539 -1.14102,3.505729 -0.405906,-1.16952 -0.784535,-2.781311 -1.620566,-3.638021 -0.993047,-0.67091 -2.7016,-1.45678 -3.654558,-1.686718 1.06449,-0.331567 2.958766,-0.629039 3.720704,-1.30638 0.552181,-0.863628 1.63603,-3.006015 1.83554,-4.266406 z" /></g><g
       id="g6"
       inkscape:label="chevrons"
       style="display:inline"><path
         style="fill:#f3ede2;fill-opacity:1;stroke-width:0.264583"
         d="m 101.37617,74.236525 2.43823,3.45733 L 97.577558,91.874078 78.10881,94.769906 73.099742,91.504571 94.847516,88.4791 Z"
         id="path2"
         inkscape:label="chevron_left_upper"
         inkscape:original-d="m 90.099255,61.901702 4.842004,7.927593 -11.487891,27.153201 -34.701032,2.326063 -9.826418,-6.740832 39.305679,-2.373529 z" /><path
         style="fill:#f3ede2;fill-opacity:1;stroke-width:0.264583"
         d="m 77.269399,97.837581 14.760779,10.741459 -8.190481,23.61763 -6.410234,3.38 9.537454,-24.45221 -14.393232,-10.7412 z"
         id="path3"
         inkscape:label="chevron_left_lower"
         inkscape:original-d="m 47.945336,104.62527 26.963319,19.93766 -10.538481,32.28003 -9.114361,3.41789 11.487893,-32.46991 -26.393671,-19.46296 z" /><path
         style="fill:#f3ede2;fill-opacity:1;stroke-width:0.264583"
         d="m 85.053535,143.37229 1.595397,-7.99588 21.097298,-17.17739 21.00724,11.94203 2.48001,7.96348 -22.75121,-13.97291 z"
         id="path4"
         inkscape:label="chevron_bottom"
         inkscape:original-d="m 67.408295,170.60944 1.51906,-9.39918 31.995205,-20.03261 31.71038,18.98826 2.37353,10.15871 -33.1345,-20.79214 z" /><path
         style="fill:#f3ede2;fill-opacity:1;stroke-width:0.264583"
         d="m 121.91813,103.55314 9.39685,21.73525 7.46116,3.95407 -11.40899,-24.71655 13.83073,-14.357958 -4.68787,-1.291198 z"
         id="path5"
         inkscape:label="chevron_right_lower"
         inkscape:original-d="m 125.89211,120.86022 11.58284,33.32438 10.72836,6.17119 -13.1019,-37.12203 28.67226,-22.69096 -8.25989,-3.133068 z" /><path
         style="fill:#f3ede2;fill-opacity:1;stroke-width:0.264583"
         d="m 138.58529,81.363619 -3.42935,4.634554 -18.9834,2.842097 -6.73076,-11.904176 2.18773,-4.386808 7.2337,11.801798 z"
         id="path6"
         inkscape:label="chevron_right_upper"
         inkscape:original-d="m 162.06473,83.073601 -8.16495,8.639657 -36.17262,2.468472 -11.67777,-25.064492 4.74706,-9.304245 12.62719,26.108848 z" /><g
         id="g28"
         inkscape:label="chevron bulbs"
         style="display:inline"><path
           style="fill:#d7c7ee;fill-opacity:1;stroke-width:0.264583"
           id="path15"
           sodipodi:type="arc"
           sodipodi:cx="85.063538"
           sodipodi:cy="83.60833"
           sodipodi:rx="2.1166666"
           sodipodi:ry="2.1166666"
           d="m 99.743844,84.703219 c -0.0098,0.591978 -0.523047,1.114891 -1.146765,1.164632 -0.624123,0.04977 -1.116675,-0.393493 -1.099874,-0.986722 0.0167,-0.589541 0.530706,-1.104137 1.147808,-1.152664 0.616705,-0.0485 1.108532,0.386452 1.098831,0.974754 z" /><path
           style="fill:#d7c7ee;fill-opacity:1;stroke-width:0.264583"
           id="path16"
           sodipodi:type="arc"
           sodipodi:cx="61.581772"
           sodipodi:cy="94.522392"
           sodipodi:rx="2.9765625"
           sodipodi:ry="2.9765625"
           d="m 87.219159,91.398934 c -0.07138,0.894723 -0.873215,1.687743 -1.791155,1.76391 -0.918813,0.07624 -1.59354,-0.595509 -1.506974,-1.493003 0.08578,-0.889368 0.887948,-1.664076 1.791624,-1.737561 0.902833,-0.07342 1.577235,0.580018 1.506505,1.466654 z" /><path
           style="fill:#d7c7ee;fill-opacity:1;stroke-width:0.264583"
           id="path17"
           sodipodi:type="arc"
           sodipodi:cx="58.340626"
           sodipodi:cy="117.07812"
           sodipodi:rx="2.9104166"
           sodipodi:ry="2.5135417"
           d="m 84.225806,104.60491 c -0.07661,0.86046 -0.915825,1.63282 -1.874717,1.71877 -0.959841,0.086 -1.664365,-0.54921 -1.573419,-1.41247 0.0902,-0.85621 0.92999,-1.61274 1.875543,-1.69599 0.944631,-0.0832 1.648582,0.53624 1.572593,1.38969 z" /><path
           style="fill:#d7c7ee;fill-opacity:1;stroke-width:0.264583"
           id="path18"
           sodipodi:type="arc"
           sodipodi:cx="66.807289"
           sodipodi:cy="138.50937"
           sodipodi:rx="2.5135417"
           sodipodi:ry="2.3812499"
           d="m 88.052066,118.2385 c -0.06142,0.92442 -0.824275,1.74853 -1.704155,1.83381 -0.880681,0.0854 -1.534228,-0.60269 -1.459575,-1.52989 0.07404,-0.91956 0.83742,-1.72648 1.704907,-1.80908 0.866709,-0.0825 1.519735,0.58835 1.458823,1.50516 z" /><path
           style="fill:#d7c7ee;fill-opacity:1;stroke-width:0.264583"
           id="path20"
           sodipodi:type="arc"
           sodipodi:cx="78.581245"
           sodipodi:cy="159.74219"
           sodipodi:rx="2.1166666"
           sodipodi:ry="1.7859374"
           d="m 94.626782,133.36729 c -0.02732,0.78942 -0.686904,1.50014 -1.473636,1.58273 -0.787375,0.0827 -1.396156,-0.49583 -1.35939,-1.2874 0.03652,-0.78635 0.697073,-1.48535 1.475026,-1.56588 0.777325,-0.0805 1.385141,0.48632 1.358,1.27055 z" /><path
           style="fill:#d7c7ee;fill-opacity:1;stroke-width:0.264583"
           id="path21"
           sodipodi:type="arc"
           sodipodi:cx="91.54583"
           sodipodi:cy="151.47395"
           sodipodi:rx="1.7197917"
           sodipodi:ry="1.5875"
           d="m 102.9853,126.12823 c 3.3e-4,0.65894 -0.49848,1.24657 -1.11449,1.30913 -0.6164,0.0626 -1.11149,-0.42473 -1.10548,-1.08508 0.006,-0.6566 0.50564,-1.23578 1.11572,-1.29698 0.60968,-0.0611 1.10391,0.41772 1.10425,1.07293 z" /><path
           style="fill:#d7c7ee;fill-opacity:1;stroke-width:0.264583"
           id="path22"
           sodipodi:type="arc"
           sodipodi:cx="111.32343"
           sodipodi:cy="150.74635"
           sodipodi:rx="2.3151042"
           sodipodi:ry="1.9182291"
           d="m 115.99897,124.27449 c 0.0449,0.78307 -0.58039,1.48892 -1.39752,1.57177 -0.81782,0.0829 -1.50978,-0.49037 -1.54466,-1.27566 -0.0347,-0.77996 0.59283,-1.47382 1.40068,-1.55453 0.80716,-0.0806 1.49692,0.48068 1.5415,1.25842 z" /><path
           style="fill:#d7c7ee;fill-opacity:1;stroke-width:0.264583"
           id="path23"
           sodipodi:type="arc"
           sodipodi:cx="126.53698"
           sodipodi:cy="160.46979"
           sodipodi:rx="2.4473958"
           sodipodi:ry="2.3812499"
           d="m 126.41835,130.62334 c 0.10272,1.02683 -0.52913,1.94138 -1.41285,2.03465 -0.88454,0.0933 -1.67494,-0.67252 -1.76396,-1.70253 -0.0883,-1.02108 0.54734,-1.91554 1.41822,-2.00573 0.87008,-0.0901 1.65675,0.65567 1.75859,1.67361 z" /><path
           style="fill:#d7c7ee;fill-opacity:1;stroke-width:0.264583"
           id="path24"
           sodipodi:type="arc"
           sodipodi:cx="140.16302"
           sodipodi:cy="147.24062"
           sodipodi:rx="2.8442707"
           sodipodi:ry="2.778125"
           d="m 134.10278,119.90873 c 0.15168,1.0911 -0.51515,2.06279 -1.49166,2.16079 -0.97753,0.0981 -1.88103,-0.71768 -2.01593,-1.81251 -0.1336,-1.08428 0.53864,-2.03222 1.49944,-2.12661 0.95983,-0.0943 1.85793,0.69773 2.00815,1.77833 z" /><path
           style="fill:#d7c7ee;fill-opacity:1;stroke-width:0.264583"
           id="path25"
           sodipodi:type="arc"
           sodipodi:cx="132.55624"
           sodipodi:cy="127.39687"
           sodipodi:rx="2.5135417"
           sodipodi:ry="2.3812499"
           d="m 127.65181,107.11694 c 0.0972,0.83135 -0.48391,1.57153 -1.29936,1.64737 -0.81615,0.0759 -1.54839,-0.5432 -1.63425,-1.37691 -0.0852,-0.8272 0.49916,-1.55275 1.30397,-1.62631 0.80412,-0.0735 1.53316,0.53097 1.62964,1.35585 z" /><path
           style="fill:#d7c7ee;fill-opacity:1;stroke-width:0.264583"
           id="path26"
           sodipodi:type="arc"
           sodipodi:cx="144.92552"
           sodipodi:cy="110.26511"
           sodipodi:rx="2.8442707"
           sodipodi:ry="2.8442707"
           d="m 133.47083,96.243338 c 0.13603,0.893552 -0.45989,1.685704 -1.33285,1.762168 -0.87377,0.07654 -1.68263,-0.593807 -1.80492,-1.490063 -0.12121,-0.888344 0.47912,-1.66267 1.33919,-1.736517 0.85929,-0.07378 1.66374,0.578734 1.79858,1.464412 z" /><path
           style="fill:#d7c7ee;fill-opacity:1;stroke-width:0.264583"
           id="path27"
           sodipodi:type="arc"
           sodipodi:cx="145.58698"
           sodipodi:cy="88.436981"
           sodipodi:rx="2.5796874"
           sodipodi:ry="2.4473958"
           d="m 131.904,84.581268 c 0.10452,0.681657 -0.41384,1.286839 -1.15902,1.3473 -0.74576,0.06051 -1.42827,-0.448041 -1.52328,-1.131447 -0.0943,-0.678514 0.42699,-1.272678 1.16326,-1.331446 0.7357,-0.05872 1.41526,0.43881 1.51904,1.115593 z" /><path
           style="fill:#d7c7ee;fill-opacity:1;stroke-width:0.264583"
           id="path28"
           sodipodi:type="arc"
           sodipodi:cx="114.96146"
           sodipodi:cy="78.052086"
           sodipodi:rx="3.3072915"
           sodipodi:ry="3.175"
           d="m 115.892,80.687223 c 0.0597,0.850526 -0.65858,1.606032 -1.60573,1.680449 -0.9481,0.07449 -1.7535,-0.562555 -1.7977,-1.415823 -0.0438,-0.8455 0.6777,-1.583512 1.61032,-1.655277 0.93171,-0.07169 1.73393,0.547856 1.79311,1.390651 z" /></g></g><path
       style="display:inline;fill:#9060f0;fill-opacity:1;stroke-width:0.264583"
       d="m 115.00114,111.03068 1.35015,3.8565 9.97397,8.10462 -7.7485,-10.8981 z"
       id="path30"
       inkscape:label="trellis_lower_right_2"
       inkscape:original-d="m 113.24167,131.63021 1.85208,5.95312 14.94896,12.83229 -10.98021,-16.66875 z" /><path
       style="display:inline;fill:#d7c7ee;fill-opacity:1;stroke-width:0.264583"
       d="m 111.19731,107.36759 1.41761,0.20623 1.04152,2.02761 -1.67878,-0.44345 z"
       id="path29"
       inkscape:label="trellis_lower_right_1"
       inkscape:original-d="m 107.15625,125.4125 2.38125,0.52917 1.5875,3.30729 -2.77813,-0.92604 z" /><path
       style="display:inline;fill:#f3ede2;fill-opacity:1;stroke-width:0.264583"
       d="m 120.46334,114.6984 c 0.0264,1.23814 0.12183,2.39428 -1.30932,3.1969 1.68277,-1.12116 1.80107,0.60955 2.3614,1.55218 -0.0974,-1.08417 -0.80444,-2.5637 1.81617,-1.82838 -1.85894,-0.57284 -2.94616,-1.48948 -2.86825,-2.9207 z"
       id="path44"
       sodipodi:nodetypes="ccccc"
       inkscape:label="trellis_lower_right_sparkle"
       inkscape:original-d="m 121.84149,137.88435 c -0.11866,1.81101 -0.11353,3.49369 -2.52569,4.44335 2.86144,-1.37271 2.82593,1.11718 3.60145,2.5257 -0.0116,-1.54508 -0.95834,-3.75813 3.18051,-2.33861 -2.92631,-1.07962 -4.56958,-2.55402 -4.25627,-4.63044 z" /><path
       style="display:inline;fill:#d7c7ee;fill-opacity:1;stroke-width:0.264583"
       d="m 102.66103,108.74069 -0.63897,2.02701 -1.7635,0.94461 0.66016,-2.21602 z"
       id="path31"
       inkscape:label="trellis_lower_left_2"
       inkscape:original-d="m 92.736457,126.33854 -1.058333,3.04271 -2.910417,1.19062 1.058334,-3.30729 z" /><path
       style="fill:#9060f0;fill-opacity:1;stroke-width:0.264583"
       d="m 99.104759,113.66517 -1.222074,4.08766 -8.960581,10.79779 7.073815,-13.61175 z"
       id="path32"
       inkscape:label="trellis_lower_left_1"
       inkscape:original-d="m 86.915624,133.35 -1.852083,5.82083 -13.361459,13.62604 10.186459,-17.99166 z" /><path
       style="display:inline;fill:#f3ede2;fill-opacity:1;stroke-width:0.264583"
       d="m 94.163315,117.86688 c 0.181946,2.33129 0.755804,3.16338 1.49444,3.35177 -1.646342,-0.094 -1.551593,2.04781 -2.316618,3.11377 0.578384,-1.98673 0.41324,-3.19359 -1.148326,-2.97539 1.449937,-0.27204 1.953297,-1.61777 1.970504,-3.49015 z"
       id="path42"
       sodipodi:nodetypes="ccccc"
       inkscape:label="trellis_lower_left_sparkle"
       inkscape:original-d="m 79.091733,138.81979 c 0.43411,3.34614 1.392934,4.59342 2.57247,4.95785 -2.611292,-0.35661 -2.331022,2.6232 -3.461141,3.97563 0.780544,-2.64648 0.443872,-4.34762 -2.011202,-4.25626 2.274904,-0.18194 2.989073,-2.00675 2.899873,-4.67722 z" /><path
       style="fill:#9060f0;fill-opacity:1;stroke-width:0.264583"
       d="m 95.922366,100.31566 -9.468,-3.999903 -4.572122,0.237195 8.513286,4.793628 z"
       id="path33"
       inkscape:label="trellis_upper_left_2"
       inkscape:original-d="m 80.962499,111.65417 -17.065625,-8.33438 -8.069791,-0.26458 15.610416,9.525 z" /><path
       style="fill:#d7c7ee;fill-opacity:1;stroke-width:0.264583"
       d="m 96.137158,96.168153 1.521095,1.53127 1.507796,-0.584702 -1.094776,-1.036092 z"
       id="path34"
       inkscape:label="trellis_upper_left_1"
       inkscape:original-d="m 81.094791,104.51042 2.778125,2.91041 2.645833,-0.79375 -1.984375,-1.98437 z" /><path
       style="display:inline;fill:#f3ede2;fill-opacity:1;stroke-width:0.264583"
       d="m 90.339135,97.743902 c -0.09262,1.119365 0.49578,1.298957 1.170147,1.35958 -0.905515,0.204981 -1.068928,1.213178 -0.977274,2.509938 -0.285482,-1.869768 -0.907222,-2.101076 -1.590093,-2.042683 1.019502,0.07766 1.297381,-0.769261 1.39722,-1.826835 z"
       id="path41"
       sodipodi:nodetypes="ccccc"
       inkscape:label="trellis_upper_left_sparkle"
       inkscape:original-d="m 70.953378,106.40668 c -0.04099,1.92515 1.010018,2.32151 2.19829,2.5257 -1.56552,0.21763 -1.744656,1.91407 -1.449937,4.11595 -0.694002,-3.2064 -1.806293,-3.69392 -2.99342,-3.69501 1.790849,0.28367 2.184678,-1.12904 2.245067,-2.94664 z" /><path
       style="fill:#9060f0;fill-opacity:1;stroke-width:0.264583"
       d="m 106.44907,80.394469 -0.77875,2.781548 -0.0689,4.931005 0.90131,2.522054 1.37199,-2.706667 -0.19671,-4.904271 z"
       id="path35"
       inkscape:label="trellis_top"
       inkscape:original-d="m 100.0125,75.935416 -1.587501,5.55625 -0.264584,9.657291 1.5875,4.894792 2.645835,-4.894792 -0.13229,-9.657291 z" /><path
       style="display:inline;fill:#f3ede2;fill-opacity:1;stroke-width:0.264583"
       d="m 105.10589,85.331971 c 0.92088,-0.509685 1.68308,-1.094942 1.48355,-2.162493 0.29424,0.547946 -0.0325,0.709347 1.10324,1.788466 -1.20235,-0.527848 -0.85811,0.616543 -0.95413,1.291122 -0.0338,-0.898592 -0.20672,-1.62884 -1.63266,-0.917095 z"
       id="path45"
       sodipodi:nodetypes="ccccc"
       inkscape:label="trellis_top_sparkle"
       inkscape:original-d="m 97.30052,85.691926 c 1.751848,-0.86053 3.21562,-1.901108 2.87734,-4.067969 0.53888,1.145542 -0.0884,1.416473 2.01745,3.73724 -2.25249,-1.233811 -1.64553,1.078101 -1.85208,2.38125 -0.0294,-1.763321 -0.32875,-3.231503 -3.04271,-2.050521 z" /><path
       style="fill:#d7c7ee;fill-opacity:1;stroke-width:0.264583"
       d="m 113.62089,94.311555 1.23424,-1.426314 1.73767,-0.146156 -1.42548,1.663285 z"
       id="path36"
       inkscape:label="trellis_upper_right_1"
       inkscape:original-d="m 112.44792,103.84896 2.38125,-2.38125 h 3.175 l -2.77813,2.77812 z" /><path
       style="fill:#9060f0;fill-opacity:1;stroke-width:0.264583"
       d="m 117.08083,96.560504 3.56028,-3.285458 6.29791,-3.272587 3.86982,-0.463488 -8.80894,6.522299 z"
       id="path37"
       inkscape:label="trellis_upper_right_2"
       inkscape:original-d="m 118.40104,108.34687 6.87917,-5.29166 12.17083,-5.027086 7.27604,-0.264584 -17.4625,10.45104 z" /><path
       style="display:inline;fill:#f3ede2;fill-opacity:1;stroke-width:0.264583"
       d="m 122.58607,95.634222 c -0.30639,-0.837584 -0.77808,-1.175443 -1.46381,-0.884757 0.68465,-0.653056 0.68396,-1.436332 0.68712,-2.212691 0.37139,0.812402 0.82754,1.415978 1.62321,1.126841 -0.63668,0.461997 -1.07816,1.032613 -0.84652,1.970607 z"
       id="path46"
       sodipodi:nodetypes="ccccc"
       inkscape:label="rellis_upper_right_sparkle"
       inkscape:original-d="m 128.38906,107.55312 c -0.40349,-1.52665 -1.19532,-2.19893 -2.48047,-1.78593 1.34548,-1.05977 1.47958,-2.46564 1.62058,-3.86954 0.53238,1.52595 1.25118,2.67906 2.74505,2.28204 -1.23756,0.7303 -2.13634,1.67982 -1.88516,3.37343 z" /><path
       style="fill:#9060f0;fill-opacity:1;stroke-width:0.264583"
       d="m 107.02908,110.38888 1.43847,3.45738 -0.73191,3.41594 -2.09236,-3.41544 z"
       id="path38"
       inkscape:label="trellis_bottom"
       inkscape:original-d="m 100.0125,129.51354 2.24896,5.42396 -1.32292,4.89479 -3.307291,-5.29167 z" /><path
       style="display:inline;fill:#f3ede2;fill-opacity:1;stroke-width:0.264583"
       d="m 106.99281,113.35784 c 0.0583,1.12683 -0.7725,1.38002 -1.54599,1.6932 1.60607,-0.49508 1.35198,0.54776 1.54353,1.22775 0.30311,-0.85937 0.38457,-1.94419 1.80247,-1.60999 -0.73918,-0.26986 -1.62678,-0.35487 -1.80001,-1.31096 z"
       id="path43"
       sodipodi:nodetypes="ccccc"
       inkscape:label="trellis_bottom_sparkle"
       inkscape:original-d="m 99.858575,134.00226 c 0.06049,1.68192 -1.303826,1.93904 -2.572467,2.29183 2.63362,-0.50435 2.188034,0.99278 2.478923,2.01121 0.519469,-1.21181 0.688399,-2.79752 2.993419,-2.10475 -1.19716,-0.50223 -2.64606,-0.75272 -2.899875,-2.19829 z" /><path
       style="display:inline;fill:#faf6ee;fill-opacity:1;stroke-width:0.264583"
       d="m 106.60183,93.013345 c 0.70179,1.562272 1.33925,3.202386 2.29165,4.652513 0.32761,0.850698 1.04119,1.502721 1.70691,2.187115 l 0.75979,0.579277 c -0.49758,0.52299 -1.00848,0.9808 -1.44878,1.91094 -0.73335,0.9937 -1.17505,2.21773 -1.67028,3.42045 -0.6085,1.04129 -0.99455,2.42934 -1.4059,3.80588 -0.51129,-1.27154 -0.8714,-2.51045 -1.60518,-3.78105 l -1.79643,-2.94998 c -0.4258,-0.46147 -0.67014,-1.16061 -1.31808,-1.31701 0.36858,-0.43318 0.9463,-0.62147 1.08379,-1.31385 l 1.58197,-2.816057 1.26,-2.900278 z"
       id="path40"
       sodipodi:nodetypes="cccccccccccccc"
       inkscape:label="center_diamond"
       inkscape:original-d="m 99.847134,100.44245 c 1.208806,2.92155 2.280666,5.92527 3.902606,8.59895 0.53319,1.51648 1.7521,2.73909 2.87734,4.00183 l 1.28985,1.0914 c -0.90531,0.80528 -1.82498,1.49566 -2.64584,2.97657 -1.32186,1.52882 -2.14198,3.45903 -3.04271,5.32474 -1.076,1.57203 -1.77837,3.70449 -2.513538,5.78776 -0.82042,-2.05145 -1.395636,-4.05385 -2.61276,-6.18464 l -3.042708,-5.06016 c -0.734045,-0.82571 -1.157101,-2.0246 -2.282031,-2.38125 0.638419,-0.67147 1.643782,-0.9026 1.885156,-2.05052 l 2.811198,-4.59713 2.315104,-4.92787 z" /><path
       style="display:inline;fill:#9060f0;fill-opacity:1;stroke-width:0.264583"
       d="m 106.71825,97.205966 c 0.13456,0.661899 0.47858,2.012146 0.86256,2.657636 0.34496,0.573828 1.11225,0.586278 1.72427,0.808288 -0.45524,0.20131 -1.55834,0.35075 -2.01182,0.74937 l -0.50234,2.63057 -0.38921,-2.47265 c 0.23055,-0.62198 -1.84132,-0.69907 -2.51707,-0.56857 0.4322,-0.2654 1.70258,-0.5275 2.03719,-0.96291 0.65338,-0.371242 0.73314,-2.122446 0.79642,-2.841734 z"
       id="path39"
       sodipodi:nodetypes="ccccccccc"
       inkscape:label="center sparkle"
       inkscape:original-d="m 99.91328,107.91693 c 0.2157,1.16911 0.77352,3.54094 1.42213,4.69635 0.57952,1.02163 1.9194,1.15619 2.97656,1.62058 -0.80477,0.27096 -2.73402,0.35877 -3.5388,0.9591 l -0.959109,4.26641 -0.595312,-4.13411 c 0.420169,-1.00701 -3.187393,-1.44244 -4.365625,-1.32292 0.755621,-0.38244 2.976369,-0.63637 3.571875,-1.32292 1.154982,-0.53309 1.352149,-3.52367 1.488281,-4.76249 z" /></g><g
     id="g59"
     inkscape:label="tower_left_1"
     transform="translate(0.06456915,0.16142286)"><path
       style="opacity:0.35905;fill:#503599;fill-opacity:1;stroke-width:0.264583"
       d="m 80.098023,20.855834 -0.03228,-1.775652 h 0.581123 l -0.03229,1.840221 z"
       id="path19" /><path
       style="opacity:0.35905;fill:#503599;fill-opacity:1;stroke-width:0.264583"
       d="M 81.421691,20.888118 V 5.1978162 Z"
       id="path47" /><path
       style="opacity:0.35905;fill:#503599;fill-opacity:1;stroke-width:0.264583"
       d="M 81.809107,4.7458322 V 20.888118 l 0.516552,-0.06457 -0.225991,-16.2391396 z"
       id="path48" /><path
       style="opacity:0.35905;fill:#503599;fill-opacity:1;stroke-width:0.264583"
       d="M 82.809928,19.790443 82.68079,2.8410424 83.132775,2.4859121 83.16506,19.98415 Z"
       id="path49" /><path
       style="opacity:0.35905;fill:#503599;fill-opacity:1;stroke-width:0.264583"
       d="m 81.938245,6.2309226 1.06539,-0.1291384 z"
       id="path50" /><path
       style="opacity:0.35905;fill:#503599;fill-opacity:1;stroke-width:0.264583"
       d="m 81.938245,8.9105421 1.129959,-0.3228459 -0.129138,0.7425452 -1.06539,0.096854 z"
       id="path51" /><path
       style="opacity:0.35905;fill:#503599;fill-opacity:1;stroke-width:0.264583"
       d="m 82.035099,12.009861 1.033105,-0.677976 -0.129138,0.807114 -0.807114,0.322846 L 81.97053,11.7193 Z"
       id="path52" /><path
       style="opacity:0.35905;fill:#503599;fill-opacity:1;stroke-width:0.264583"
       d="m 82.131952,15.88401 0.77483,-0.322846 0.03228,0.581122 z"
       id="path53" /><path
       style="opacity:0.35905;fill:#503599;fill-opacity:1;stroke-width:0.264583"
       d="m 82.228805,17.72423 0.742546,-0.419699 -0.03229,0.516553 z"
       id="path54" /><path
       style="opacity:0.35905;fill:#503599;fill-opacity:1;stroke-width:0.264583"
       d="m 81.97053,13.527236 0.903967,-0.258277 -0.03228,0.645692 z"
       id="path55" /><path
       style="opacity:0.35905;fill:#503599;fill-opacity:1;stroke-width:0.264583"
       d="m 81.97053,14.592627 0.839398,-0.161423 -0.581123,0.516553 z"
       id="path56" /><path
       style="opacity:0.35905;fill:#503599;fill-opacity:1;stroke-width:0.264583"
       d="m 82.939066,18.240784 -0.807114,0.193707 0.09685,0.581122 z"
       id="path57" /><path
       style="opacity:0.35905;fill:#503599;fill-opacity:1;stroke-width:0.264583"
       d="m 82.099668,5.3592391 0.71026,-0.2582768 -0.807114,0.5488379 z"
       id="path58" /><path
       style="opacity:0.35905;fill:#503599;fill-opacity:1;stroke-width:0.264583"
       d="M 82.131952,7.0703214 82.842213,6.8120447 82.131952,7.3285979 Z"
       id="path59" /></g><g
     id="g73"
     inkscape:label="tower_2"
     transform="matrix(0.5312497,0,0,0.5312497,61.485994,2.8329774)"><path
       style="opacity:0.35905;fill:#503599;fill-opacity:1;stroke-width:0.264583"
       d="m 80.098023,20.855834 -0.03228,-1.775652 h 0.581123 l -0.03229,1.840221 z"
       id="path60" /><path
       style="opacity:0.35905;fill:#503599;fill-opacity:1;stroke-width:0.264583"
       d="M 81.421691,20.888118 V 5.1978162 Z"
       id="path61" /><path
       style="opacity:0.35905;fill:#503599;fill-opacity:1;stroke-width:0.264583"
       d="M 81.809107,4.7458322 V 20.888118 l 0.516552,-0.06457 -0.225991,-16.2391396 z"
       id="path62" /><path
       style="opacity:0.35905;fill:#503599;fill-opacity:1;stroke-width:0.264583"
       d="M 82.809928,19.790443 82.68079,2.8410424 83.132775,2.4859121 83.16506,19.98415 Z"
       id="path63" /><path
       style="opacity:0.35905;fill:#503599;fill-opacity:1;stroke-width:0.264583"
       d="m 81.938245,6.2309226 1.06539,-0.1291384 z"
       id="path64" /><path
       style="opacity:0.35905;fill:#503599;fill-opacity:1;stroke-width:0.264583"
       d="m 81.938245,8.9105421 1.129959,-0.3228459 -0.129138,0.7425452 -1.06539,0.096854 z"
       id="path65" /><path
       style="opacity:0.35905;fill:#503599;fill-opacity:1;stroke-width:0.264583"
       d="m 82.035099,12.009861 1.033105,-0.677976 -0.129138,0.807114 -0.807114,0.322846 L 81.97053,11.7193 Z"
       id="path66" /><path
       style="opacity:0.35905;fill:#503599;fill-opacity:1;stroke-width:0.264583"
       d="m 82.131952,15.88401 0.77483,-0.322846 0.03228,0.581122 z"
       id="path67" /><path
       style="opacity:0.35905;fill:#503599;fill-opacity:1;stroke-width:0.264583"
       d="m 82.228805,17.72423 0.742546,-0.419699 -0.03229,0.516553 z"
       id="path68" /><path
       style="opacity:0.35905;fill:#503599;fill-opacity:1;stroke-width:0.264583"
       d="m 81.97053,13.527236 0.903967,-0.258277 -0.03228,0.645692 z"
       id="path69" /><path
       style="opacity:0.35905;fill:#503599;fill-opacity:1;stroke-width:0.264583"
       d="m 81.97053,14.592627 0.839398,-0.161423 -0.581123,0.516553 z"
       id="path70" /><path
       style="opacity:0.35905;fill:#503599;fill-opacity:1;stroke-width:0.264583"
       d="m 82.939066,18.240784 -0.807114,0.193707 0.09685,0.581122 z"
       id="path71" /><path
       style="opacity:0.35905;fill:#503599;fill-opacity:1;stroke-width:0.264583"
       d="m 82.099668,5.3592391 0.71026,-0.2582768 -0.807114,0.5488379 z"
       id="path72" /><path
       style="opacity:0.35905;fill:#503599;fill-opacity:1;stroke-width:0.264583"
       d="M 82.131952,7.0703214 82.842213,6.8120447 82.131952,7.3285979 Z"
       id="path73" /></g><g
     id="g73-0"
     inkscape:label="tower_2"
     transform="matrix(-0.30208289,0,0,0.30208289,154.78719,0.38060972)"><path
       style="opacity:0.35905;fill:#503599;fill-opacity:1;stroke-width:0.264583"
       d="m 80.098023,20.855834 -0.03228,-1.775652 h 0.581123 l -0.03229,1.840221 z"
       id="path60-5" /><path
       style="opacity:0.35905;fill:#503599;fill-opacity:1;stroke-width:0.264583"
       d="M 81.421691,20.888118 V 5.1978162 Z"
       id="path61-6" /><path
       style="opacity:0.35905;fill:#503599;fill-opacity:1;stroke-width:0.264583"
       d="M 81.809107,4.7458322 V 20.888118 l 0.516552,-0.06457 -0.225991,-16.2391396 z"
       id="path62-7" /><path
       style="opacity:0.35905;fill:#503599;fill-opacity:1;stroke-width:0.264583"
       d="M 82.809928,19.790443 82.68079,2.8410424 83.132775,2.4859121 83.16506,19.98415 Z"
       id="path63-8" /><path
       style="opacity:0.35905;fill:#503599;fill-opacity:1;stroke-width:0.264583"
       d="m 81.938245,6.2309226 1.06539,-0.1291384 z"
       id="path64-0" /><path
       style="opacity:0.35905;fill:#503599;fill-opacity:1;stroke-width:0.264583"
       d="m 81.938245,8.9105421 1.129959,-0.3228459 -0.129138,0.7425452 -1.06539,0.096854 z"
       id="path65-6" /><path
       style="opacity:0.35905;fill:#503599;fill-opacity:1;stroke-width:0.264583"
       d="m 82.035099,12.009861 1.033105,-0.677976 -0.129138,0.807114 -0.807114,0.322846 L 81.97053,11.7193 Z"
       id="path66-5" /><path
       style="opacity:0.35905;fill:#503599;fill-opacity:1;stroke-width:0.264583"
       d="m 82.131952,15.88401 0.77483,-0.322846 0.03228,0.581122 z"
       id="path67-7" /><path
       style="opacity:0.35905;fill:#503599;fill-opacity:1;stroke-width:0.264583"
       d="m 82.228805,17.72423 0.742546,-0.419699 -0.03229,0.516553 z"
       id="path68-3" /><path
       style="opacity:0.35905;fill:#503599;fill-opacity:1;stroke-width:0.264583"
       d="m 81.97053,13.527236 0.903967,-0.258277 -0.03228,0.645692 z"
       id="path69-4" /><path
       style="opacity:0.35905;fill:#503599;fill-opacity:1;stroke-width:0.264583"
       d="m 81.97053,14.592627 0.839398,-0.161423 -0.581123,0.516553 z"
       id="path70-3" /><path
       style="opacity:0.35905;fill:#503599;fill-opacity:1;stroke-width:0.264583"
       d="m 82.939066,18.240784 -0.807114,0.193707 0.09685,0.581122 z"
       id="path71-0" /><path
       style="opacity:0.35905;fill:#503599;fill-opacity:1;stroke-width:0.264583"
       d="m 82.099668,5.3592391 0.71026,-0.2582768 -0.807114,0.5488379 z"
       id="path72-4" /><path
       style="opacity:0.35905;fill:#503599;fill-opacity:1;stroke-width:0.264583"
       d="M 82.131952,7.0703214 82.842213,6.8120447 82.131952,7.3285979 Z"
       id="path73-8" /></g></svg>
