<?xml version="1.0" encoding="UTF-8"?>
<!-- Generator: visioncortex VTracer 0.6.12 -->
<svg version="1.1" xmlns="http://www.w3.org/2000/svg" viewBox="0 0 1024 1024" width="1024" height="1024">
<defs>
  <!-- Bulb glow: tight core + wide bloom simulates incandescent/LED point light -->
  <filter id="cdn-bulb-glow" x="-400%" y="-400%" width="900%" height="900%" color-interpolation-filters="sRGB">
    <feGaussianBlur in="SourceGraphic" stdDeviation="18" result="wide"/>
    <feGaussianBlur in="SourceGraphic" stdDeviation="6" result="tight"/>
    <feMerge>
      <feMergeNode in="wide"/>
      <feMergeNode in="wide"/>
      <feMergeNode in="tight"/>
      <feMergeNode in="SourceGraphic"/>
    </feMerge>
  </filter>
  <!-- Star arm glow: subtler, wider halo -->
  <filter id="cdn-arm-glow" x="-100%" y="-100%" width="300%" height="300%" color-interpolation-filters="sRGB">
    <feGaussianBlur in="SourceGraphic" stdDeviation="10" result="blur"/>
    <feMerge>
      <feMergeNode in="blur"/>
      <feMergeNode in="SourceGraphic"/>
    </feMerge>
  </filter>
</defs>
<style>
  @keyframes cdn-bulb-pulse {
    0%, 100% { opacity: 1; }
    50% { opacity: 0.45; }
  }
  @media (prefers-reduced-motion: no-preference) {
    .cdn-bulb { animation: cdn-bulb-pulse 3s ease-in-out infinite; }
    .cdn-arm  { animation: cdn-bulb-pulse 5s ease-in-out infinite; }
  }
  .cdn-bulb { filter: url(#cdn-bulb-glow); }
  .cdn-arm  { filter: url(#cdn-arm-glow); }
</style>

<path d="M0,0 L8,1 L43,13 L38,18 L28,26 L12,39 L-1,49 L-17,62 L-26,69 L-40,80 L-56,93 L-67,102 L-80,112 L-91,121 L-90,126 L-70,183 L-59,214 L-45,253 L-31,293 L-31,295 L-37,293 L-64,278 L-79,269 L-84,265 L-103,209 L-122,156 L-138,110 L-136,106 L-122,95 L-113,88 L-99,77 L-85,66 L-75,58 L-57,44 L-41,32 L-28,22 L-17,13 L-4,3 Z " fill="#FCFCFD" transform="translate(764,457)"/>
<path d="M0,0 L5,1 L25,13 L53,30 L69,39 L84,48 L99,57 L123,71 L145,84 L152,89 L156,105 L163,136 L163,138 L157,136 L135,122 L112,108 L93,96 L76,86 L60,76 L35,61 L8,45 L5,43 L0,44 L-11,51 L-32,64 L-55,78 L-74,90 L-100,106 L-121,119 L-139,130 L-154,139 L-157,139 L-151,100 L-150,95 L-132,84 L-109,69 L-89,57 L-75,48 L-64,41 L-40,26 L-15,10 Z " fill="#FBFBFC" transform="translate(508,662)"/>
<path d="M0,0 L2,0 L11,17 L22,41 L30,57 L48,95 L60,119 L63,124 L171,115 L239,109 L243,109 L241,113 L204,150 L169,153 L123,156 L59,161 L34,162 L16,125 L1,92 L-12,64 L-20,48 L-19,41 L-7,17 Z " fill="#FCFCFD" transform="translate(554,279)"/>
<path d="M0,0 L4,2 L21,14 L39,28 L52,37 L65,47 L83,60 L98,71 L113,82 L129,94 L127,103 L111,152 L98,189 L80,244 L76,248 L37,263 L36,260 L53,211 L67,171 L85,120 L90,108 L85,106 L71,95 L57,85 L40,72 L22,59 L4,46 L-15,32 L-33,19 L-33,16 L-12,6 Z " fill="#FBFAFA" transform="translate(258,490)"/>
<path d="M0,0 L4,5 L9,14 L22,35 L23,40 L12,66 L-1,96 L-16,132 L-30,165 L-31,166 L-73,169 L-138,174 L-185,177 L-196,177 L-209,168 L-224,158 L-241,147 L-241,146 L-206,143 L-124,138 L-64,134 L-56,133 L-44,106 L-31,75 L-14,34 Z " fill="#FAFAFA" transform="translate(458,288)"/>
<path d="M0,0 L3,3 L10,18 L23,47 L31,63 L37,75 L37,81 L26,106 L21,119 L13,135 L5,151 L4,153 L2,153 L-7,139 L-21,116 L-30,101 L-36,90 L-35,83 L-25,58 L-19,45 L-14,31 L-8,18 L-2,3 Z " fill="#9B5CF4" class="cdn-arm" style="animation-delay:0.0s" transform="translate(506,176)"/>
<path d="M0,0 L26,0 L26,2 L12,13 L-1,24 L-15,35 L-28,46 L-33,50 L-35,50 L-35,52 L-49,63 L-59,72 L-63,75 L-71,74 L-95,67 L-116,60 L-120,57 L-79,16 L-73,9 L-71,9 L-69,5 L-32,2 Z " fill="#9B5DF5" class="cdn-arm" style="animation-delay:0.6s" transform="translate(899,382)"/>
<path d="M0,0 L16,8 L43,22 L62,31 L67,43 L73,58 L88,97 L95,116 L96,123 L88,119 L79,113 L61,103 L43,92 L32,85 L9,71 L7,66 L6,52 L3,33 L0,8 Z " fill="#9C5DF5" transform="translate(684,747)"/>
<path d="M0,0 L5,2 L19,10 L39,22 L63,36 L85,49 L92,54 L96,70 L103,101 L103,103 L97,101 L75,87 L52,73 L33,61 L16,51 L0,41 L-22,28 L-20,27 L-20,25 L-13,25 L-19,20 L-20,14 L-17,9 L-13,6 L-6,5 L-1,5 Z " fill="#FBFAFA" transform="translate(568,697)"/>
<path d="M0,0 L2,3 L9,21 L17,37 L27,53 L33,60 L38,64 L38,66 L33,71 L25,81 L15,98 L6,117 L0,132 L-2,130 L-10,110 L-22,87 L-33,73 L-39,68 L-33,61 L-23,47 L-9,20 L-1,1 Z " fill="#FAF9F9" transform="translate(504,470)"/>
<path d="M0,0 L2,0 L-2,40 L-5,60 L-14,66 L-34,77 L-50,85 L-67,95 L-73,98 L-74,96 L-69,81 L-65,68 L-52,28 L-48,18 L-31,12 L-16,6 Z " fill="#9B5DF5" class="cdn-arm" style="animation-delay:1.2s" transform="translate(335,755)"/>
<path d="M0,0 L13,0 L24,9 L43,21 L62,33 L62,35 L64,35 L64,37 L53,42 L36,50 L20,58 L14,59 L14,57 L9,55 L-4,45 L-15,37 L-34,23 L-46,14 L-58,6 L-58,4 L-56,3 Z " fill="#985AF2" transform="translate(181,439)"/>
<path d="M0,0 L4,2 L21,14 L39,28 L52,37 L65,47 L71,51 L67,53 L65,49 L62,50 L63,59 L60,65 L55,69 L49,70 L48,73 L40,70 L37,70 L18,56 L1,44 L-16,31 L-33,19 L-33,16 L-12,6 Z " fill="#FAFAFA" transform="translate(258,490)"/>
<path d="M0,0 L20,0 L17,3 L17,5 L21,6 L25,10 L26,13 L26,21 L22,27 L22,30 L20,30 L20,32 L33,32 L33,33 L-30,37 L-41,37 L-54,28 L-69,18 L-86,7 L-86,6 L-51,3 Z " fill="#FAFAFB" transform="translate(303,428)"/>
<path d="M0,0 L3,0 L3,2 L-7,9 L-17,16 L-28,22 L-46,32 L-50,32 L-50,34 L-70,46 L-74,49 L-78,51 L-87,52 L-123,52 L-122,50 L-120,50 L-118,46 L-105,37 L-103,37 L-103,35 L-99,34 L-99,32 L-97,32 L-97,30 L-81,22 L-39,4 L-28,2 Z " fill="#7912DA" transform="translate(714,457)"/>
<path d="M0,0 L32,0 L44,2 L60,9 L72,14 L75,14 L76,11 L78,11 L79,17 L84,19 L89,22 L97,24 L101,28 L118,38 L122,42 L111,43 L80,43 L77,46 L77,42 L71,40 L50,30 L37,25 L21,15 L11,8 L0,1 Z " fill="#7C13DE" transform="translate(294,484)"/>
<path d="M0,0 L2,0 L3,3 L-1,4 L-4,9 L-12,13 L-15,14 L-17,20 L-16,28 L-11,33 L-4,34 L3,32 L8,38 L-9,48 L-20,55 L-38,66 L-53,75 L-56,75 L-50,36 L-49,31 L-31,20 L-8,5 Z " fill="#FAF9FA" transform="translate(407,726)"/>
<path d="M0,0 L2,2 L7,18 L11,30 L12,45 L12,61 L10,77 L1,98 L-1,98 L-9,75 L-9,49 L-13,47 L-10,45 L-9,29 L-3,8 Z " fill="#7E10D7" transform="translate(505,354)"/>
<path d="M0,0 L1,2 L10,4 L27,11 L36,22 L40,28 L44,34 L45,32 L47,32 L51,43 L56,49 L63,52 L61,54 L52,59 L49,65 L48,70 L46,70 L44,64 L38,56 L29,52 L29,51 L34,50 L23,42 L17,37 L17,35 L13,33 L9,28 L5,15 L0,3 Z M37,48 Z " fill="#7D0AE0" transform="translate(566,616)"/>
<path d="M0,0 L11,6 L25,15 L29,31 L36,62 L36,64 L30,62 L8,48 L-13,35 L-12,33 L-7,32 L-10,31 L-2,31 L5,28 L8,21 L7,14 L2,9 L-3,7 L-2,2 Z " fill="#FAF9FA" transform="translate(635,736)"/>
<path d="M0,0 L2,0 L0,9 L-5,23 L-7,30 L-14,38 L-23,45 L-25,47 L-22,50 L-30,53 L-35,58 L-38,64 L-40,65 L-44,56 L-51,51 L-54,50 L-54,48 L-46,45 L-42,39 L-39,29 L-36,31 L-34,31 L-32,26 L-22,10 L-2,1 Z " fill="#7F0ADE" transform="translate(441,624)"/>
<path d="M0,0 L2,0 L3,6 L8,8 L13,11 L21,13 L25,17 L42,27 L46,31 L35,32 L4,32 L1,35 L-1,25 L-7,18 L-16,15 L-16,14 L-7,11 L-2,6 Z " fill="#7D14DD" transform="translate(370,495)"/>
<path d="M0,0 L9,1 L15,5 L18,9 L19,18 L15,26 L9,30 L0,31 L-8,27 L-12,22 L-13,13 L-9,5 L-3,1 Z " fill="#A064FA" class="cdn-bulb" style="animation-delay:0.0s" transform="translate(574,351)"/>
<path d="M0,0 L1,0 L5,18 L11,26 L19,30 L25,32 L22,34 L13,38 L8,43 L4,50 L2,64 L0,64 L-1,52 L-6,43 L-13,37 L-23,33 L-20,31 L-10,27 L-4,20 L-1,12 Z " fill="#FBF9FB" transform="translate(507,229)"/>
<path d="M0,0 L2,1 L-3,9 L-9,12 L-15,12 L-15,14 L-6,15 L-1,19 L2,26 L0,30 L-9,31 L-45,31 L-44,29 L-42,29 L-40,25 L-27,16 L-25,16 L-25,14 L-21,13 L-21,11 L-19,11 L-19,9 L-3,1 Z " fill="#7C0FDA" transform="translate(636,478)"/>
<path d="M0,0 L8,1 L14,5 L17,9 L18,17 L15,24 L10,28 L5,30 L-3,29 L-9,25 L-12,21 L-13,13 L-10,6 L-5,2 Z " fill="#A064FA" class="cdn-bulb" style="animation-delay:0.75s" transform="translate(717,500)"/>
<path d="M0,0 L8,1 L14,6 L16,11 L15,19 L10,25 L4,27 L-3,26 L-9,21 L-11,15 L-10,8 L-5,2 Z " fill="#A165F9" class="cdn-bulb" style="animation-delay:1.75s" transform="translate(689,681)"/>
<path d="M0,0 L8,1 L14,6 L16,11 L15,18 L11,23 L4,26 L-4,25 L-10,20 L-12,15 L-11,8 L-7,3 Z " fill="#A064F9" class="cdn-bulb" style="animation-delay:1.0s" transform="translate(654,584)"/>
<path d="M0,0 L8,0 L13,3 L16,6 L17,9 L17,17 L13,23 L8,26 L0,26 L-6,22 L-9,17 L-9,9 L-5,3 Z " fill="#9F65F5" transform="translate(312,432)"/>
<path d="M0,0 L8,1 L14,6 L16,11 L15,18 L11,23 L4,26 L-4,25 L-10,20 L-12,13 L-10,6 L-4,1 Z " fill="#A064F9" class="cdn-bulb" style="animation-delay:0.5s" transform="translate(717,400)"/>
<path d="M0,0 L2,0 L9,16 L10,19 L10,28 L17,29 L13,31 L9,32 L6,47 L2,47 L0,37 L-5,32 L-11,30 L-7,27 L-8,17 Z " fill="#640FBD" transform="translate(502,610)"/>
<path d="M0,0 L9,1 L15,6 L17,10 L16,17 L11,23 L5,25 L-3,24 L-9,19 L-11,14 L-10,8 L-5,2 Z " fill="#A064F9" class="cdn-bulb" style="animation-delay:1.25s" transform="translate(304,535)"/>
<path d="M0,0 L1,0 L4,13 L9,19 L16,22 L23,24 L19,26 L9,31 L5,36 L3,41 L2,47 L0,47 L-2,38 L-7,31 L-12,28 L-21,26 L-21,24 L-11,21 L-5,16 L-2,11 Z " fill="#FAF7F8" transform="translate(837,396)"/>
<path d="M0,0 L2,1 L5,12 L7,17 L12,19 L21,22 L21,24 L12,28 L7,32 L4,39 L3,45 L1,45 L-3,33 L-8,28 L-17,24 L-16,22 L-7,18 L-2,12 Z " fill="#F9F4F9" transform="translate(716,776)"/>
<path d="M0,0 L9,2 L14,7 L15,13 L13,18 L7,23 L0,24 L-7,21 L-11,17 L-12,10 L-9,5 L-4,1 Z " fill="#A064F9" class="cdn-bulb" style="animation-delay:1.5s" transform="translate(345,641)"/>
<path d="M0,0 L7,1 L12,6 L14,10 L13,18 L8,23 L3,25 L-4,24 L-9,19 L-11,14 L-10,7 L-5,2 Z " fill="#A166FA" class="cdn-bulb" style="animation-delay:2.5s" transform="translate(630,743)"/>
<path d="M0,0 L8,1 L13,6 L15,10 L14,18 L9,23 L4,25 L-3,24 L-8,19 L-10,14 L-9,7 L-4,2 Z " fill="#A166FA" class="cdn-bulb" style="animation-delay:2.75s" transform="translate(399,736)"/>
<path d="M0,0 L8,1 L13,4 L16,9 L15,17 L10,22 L5,24 L-2,23 L-7,20 L-10,14 L-9,7 L-4,2 Z " fill="#A166FA" class="cdn-bulb" style="animation-delay:2.0s" transform="translate(459,699)"/>
<path d="M0,0 L8,1 L13,5 L15,9 L14,16 L10,21 L1,23 L-6,20 L-9,16 L-10,9 L-6,3 Z " fill="#A165F9" class="cdn-bulb" style="animation-delay:0.25s" transform="translate(431,379)"/>
<path d="M0,0 L9,2 L14,8 L13,15 L7,20 L-1,21 L-7,18 L-10,15 L-11,9 L-8,4 L-4,1 Z " fill="#A064F9" class="cdn-bulb" style="animation-delay:2.25s" transform="translate(559,702)"/>
<path d="M0,0 L1,0 L4,11 L10,18 L19,21 L17,23 L10,26 L5,32 L2,42 L1,42 L-2,31 L-6,26 L-18,22 L-18,21 L-9,18 L-4,14 L-1,6 Z " fill="#F9F9F5" transform="translate(194,447)"/>
<path d="M0,0 L2,0 L6,11 L11,17 L18,20 L16,22 L7,27 L4,33 L3,38 L1,38 L-1,32 L-7,24 L-16,20 L-16,19 L-6,16 L-3,13 L-1,8 Z " fill="#F7F5F5" transform="translate(611,648)"/>
<path d="M0,0 L2,0 L6,10 L11,16 L15,19 L6,27 L2,35 L0,35 L-6,25 L-12,20 L-12,18 L-6,13 L-1,4 Z " fill="#7508E6" transform="translate(503,517)"/>
<path d="M0,0 L3,0 L6,7 L10,11 L20,14 L17,16 L6,20 L-1,29 L-3,27 L-6,21 L-13,17 L-19,16 L-19,14 L-11,12 L-7,10 L-2,1 Z " fill="#F9F6F8" transform="translate(640,476)"/>
<path d="M0,0 L6,0 L10,4 L9,10 L-2,23 L-9,31 L-11,31 L-12,34 L-14,34 L-14,36 L-18,38 L-17,32 L-9,16 L-1,1 Z " fill="#6912CA" transform="translate(388,679)"/>
<path d="M0,0 L1,0 L2,10 L6,16 L13,19 L16,21 L7,27 L3,35 L1,43 L0,43 L-2,32 L-4,27 L-8,25 L-14,22 L-14,20 L-6,15 L-2,9 Z " fill="#F9F5F7" transform="translate(307,777)"/>
<path d="M0,0 L2,2 L4,11 L7,16 L17,20 L13,22 L6,26 L1,35 L-1,36 L-5,27 L-12,22 L-15,21 L-15,19 L-7,16 L-3,10 Z " fill="#F5F3F4" transform="translate(402,653)"/>
<path d="M0,0 L2,0 L5,8 L14,13 L19,14 L19,15 L10,18 L5,23 L2,35 L1,35 L-1,25 L-7,18 L-16,15 L-16,14 L-7,11 L-2,6 Z " fill="#F6F1F8" transform="translate(370,495)"/>
<path d="M0,0 L1,2 L4,3 L14,20 L21,32 L20,35 L11,28 L11,26 L7,24 L-2,15 L-7,10 L-6,5 L-2,1 Z " fill="#6714C9" transform="translate(624,672)"/>
<path d="M0,0 L2,1 L-3,9 L-9,12 L-15,12 L-15,14 L-6,15 L-1,19 L2,26 L0,30 L-9,31 L-45,31 L-44,29 L-42,29 L-41,27 L-41,29 L-2,28 L-1,23 L-6,18 L-15,17 L-25,15 L-21,13 L-21,11 L-19,11 L-19,9 L-3,1 Z " fill="#5F15B5" transform="translate(636,478)"/>
<path d="M0,0 L2,0 L5,5 L16,8 L12,10 L8,11 L5,26 L1,26 L-1,16 L-6,11 L-12,9 L-8,7 L-2,3 Z " fill="#F2F1F4" transform="translate(503,631)"/>
<path d="M0,0 L32,0 L44,2 L46,4 L37,4 L8,2 L8,4 L14,3 L18,7 L22,9 L23,12 L25,13 L25,16 L30,16 L30,18 L36,20 L41,24 L41,26 L35,24 L17,12 L6,5 L0,1 Z " fill="#6E1FD0" transform="translate(294,484)"/>
<path d="M0,0 L0,3 L-6,4 L-7,8 L-5,12 L-6,14 L-4,14 L-4,16 L12,16 L23,13 L20,16 L14,19 L10,19 L10,21 L-10,33 L-14,36 L-16,35 L-9,26 L-1,22 L3,21 L-7,16 L-11,9 L-11,5 Z " fill="#5919A1" transform="translate(654,470)"/>
<path d="M0,0 L4,1 L8,13 L8,15 L12,17 L16,20 L16,22 L18,22 L18,24 L22,26 L24,29 L32,30 L36,23 L37,19 L35,19 L35,24 L34,24 L33,18 L31,14 L29,10 L29,7 L27,7 L28,3 L34,12 L39,21 L38,26 L35,31 L30,34 L22,30 L11,21 L11,19 L7,17 L3,12 Z " fill="#6514C1" transform="translate(572,632)"/>
<path d="M0,0 L7,1 L12,5 L16,10 L15,12 L11,13 L3,13 L-7,5 L-9,2 Z " fill="#7413D6" transform="translate(424,488)"/>
<path d="M0,0 L2,1 L-3,6 L-8,11 L-13,15 L-24,15 L-22,11 L-14,2 L-11,1 Z " fill="#7113CD" transform="translate(588,474)"/>
<path d="M0,0 L3,0 L3,2 L-7,9 L-18,16 L-19,13 L-14,8 L-18,5 L-28,5 L-40,7 L-39,4 L-28,2 Z " fill="#8024E1" transform="translate(714,457)"/>
<path d="M0,0 L3,0 L2,6 L-1,12 L-6,16 L-14,20 L-16,20 L-15,15 L-13,15 L-12,9 L-9,3 Z " fill="#710AD4" transform="translate(467,592)"/>
<path d="M0,0 L2,0 L5,9 L11,12 L6,17 L3,23 L2,29 L0,25 L-3,18 L-9,14 L-4,9 L-1,5 Z " fill="#F9F7FA" transform="translate(501,388)"/>
<path d="M0,0 L13,2 L17,10 L19,18 L14,17 L5,13 Z " fill="#5C19B4" transform="translate(538,589)"/>
<path d="M0,0 L5,2 L19,10 L23,14 L12,15 L-9,15 L-7,13 L2,11 L3,9 L5,9 L3,5 Z " fill="#6C18CE" transform="translate(393,512)"/>
<path d="M0,0 L1,2 L5,2 L5,0 L21,0 L26,1 L26,4 L21,6 L-11,6 L-11,4 L-5,4 L-5,2 Z " fill="#800BDC" transform="translate(606,501)"/>
<path d="M0,0 L1,0 L4,11 L10,18 L19,21 L17,23 L10,26 L5,32 L2,42 L1,42 L-2,31 L-3,28 L2,29 L3,26 L3,28 L6,28 L6,25 L10,22 L5,20 L3,18 L3,13 L-3,14 Z " fill="#F6E5FA" transform="translate(194,447)"/>
<path d="M0,0 L4,5 L10,8 L6,10 L0,15 L-2,22 L-4,22 L-5,30 L-8,31 L-9,34 L-11,34 L-9,25 Z M2,5 Z " fill="#F0EFF3" transform="translate(335,633)"/>
<path d="M0,0 L2,0 L6,10 L11,17 L4,15 L3,17 L0,16 L0,12 L3,10 L1,10 L-3,12 L-5,18 L-4,23 L-5,26 L-12,20 L-12,18 L-6,13 L-1,4 Z M2,17 L4,18 L2,25 L-1,25 L0,20 Z " fill="#7608CE" transform="translate(503,517)"/>
<path d="M0,0 L1,3 L4,3 L3,7 L5,7 L5,9 L0,14 L-1,20 L2,27 L-5,27 L-7,25 L-11,29 L-8,19 Z M2,7 Z " fill="#F2F1F5" transform="translate(423,372)"/>
<path d="M0,0 L4,0 L8,2 L8,8 L13,3 L14,0 L16,0 L13,10 L8,21 L6,21 L0,3 Z " fill="#790ED9" transform="translate(498,431)"/>
<path d="M0,0 L1,4 L-1,6 L-1,14 L3,16 L4,18 L7,15 L10,13 L14,13 L14,11 L16,11 L16,9 L20,10 L9,19 L4,22 L-2,18 L-5,10 L-4,5 L-2,5 Z " fill="#641BB1" transform="translate(409,650)"/>
<path d="M0,0 L5,1 L15,7 L15,8 L7,8 L6,4 L4,4 L3,7 L1,7 L-2,9 L-4,9 L-12,9 L-9,6 Z " fill="#EEEAF2" transform="translate(508,662)"/>
<path d="M0,0 L8,0 L6,1 L4,5 L-12,15 L-17,17 L-11,8 L-5,4 L2,2 Z " fill="#8123DA" transform="translate(655,489)"/>
<path d="M0,0 L2,0 L5,9 L5,14 L-2,15 L-7,21 L-7,24 L-16,20 L-16,19 L-6,16 L-3,13 L-1,8 Z " fill="#F6EBF9" transform="translate(611,648)"/>
<path d="M0,0 L5,1 L5,4 L8,3 L10,11 L8,14 L6,12 L-1,10 L-3,4 Z " fill="#7412DC" transform="translate(621,676)"/>
<path d="M0,0 L2,0 L3,3 L-1,4 L-4,9 L-12,13 L-15,14 L-16,17 L-22,15 L-17,11 Z " fill="#E7E2F4" transform="translate(407,726)"/>
<path d="M0,0 L1,0 L5,18 L7,22 L4,21 L2,20 L0,23 L-2,23 L-5,26 L-8,25 L-4,20 L-1,12 Z " fill="#F4E1FA" transform="translate(507,229)"/>
<path d="M0,0 L2,1 L-3,6 L-8,11 L-13,15 L-24,15 L-22,11 L-21,13 L-15,13 L-10,7 L-6,8 L-6,5 L-4,5 L-4,3 L-16,5 L-14,2 L-11,1 Z " fill="#6817BE" transform="translate(588,474)"/>
<path d="M0,0 L1,2 L40,1 L41,3 L38,4 L-3,4 L-2,2 L0,2 Z " fill="#6D18C7" transform="translate(594,505)"/>
<path d="M0,0 L7,1 L12,5 L12,7 L10,7 L10,5 L0,5 L0,10 L-6,6 L-9,2 Z " fill="#6219BA" transform="translate(424,488)"/>
<path d="M0,0 L2,4 L5,19 L-1,17 L-7,13 L-2,9 Z " fill="#E8E5F1" transform="translate(666,781)"/>
<path d="M0,0 L1,0 L2,10 L6,16 L13,19 L16,21 L11,23 L5,20 L3,16 L0,15 L0,12 L-2,12 L-2,14 L-4,13 L-1,4 Z " fill="#F5DFFA" transform="translate(307,777)"/>
<path d="M0,0 L1,2 L4,3 L13,18 L12,20 L8,18 L5,13 L4,8 L2,8 L1,5 L-4,6 L-5,11 L-7,10 L-6,5 L-2,1 Z " fill="#6417C5" transform="translate(624,672)"/>
<path d="M0,0 L7,0 L9,7 L11,10 L11,12 L4,11 L4,9 L1,8 L0,6 Z " fill="#740CD7" transform="translate(543,591)"/>
<path d="M0,0 L2,0 L2,2 L-2,5 L-2,9 L-5,12 L-13,12 L-15,13 L-17,11 Z " fill="#FCFCF3" transform="translate(488,675)"/>
<path d="M0,0 L2,4 L3,12 L7,15 L9,19 L11,17 L12,21 L21,22 L23,24 L20,25 L11,23 L5,19 L1,14 L-1,7 L-1,1 Z " fill="#7227B8" transform="translate(839,395)"/>
<path d="M0,0 L2,1 L-3,9 L-5,10 L-12,10 L-13,7 L-10,7 L-9,4 Z " fill="#680BD2" transform="translate(636,478)"/>
<path d="M0,0 L5,2 L14,7 L9,11 L1,10 L1,5 L2,3 L0,2 Z " fill="#F1EFF0" transform="translate(546,684)"/>
<path d="M0,0 L2,0 L3,4 L-1,6 L-3,10 L-7,14 L-9,5 L-5,3 Z " fill="#750CDC" transform="translate(393,682)"/>
<path d="M0,0 L1,0 L2,6 L-2,8 L-4,14 L-3,19 L-4,22 L-11,16 L-11,14 L-5,9 Z " fill="#660FC4" transform="translate(502,521)"/>
<path d="M0,0 L2,0 L2,7 L0,13 L-4,19 L-9,23 L-15,25 L-20,25 L-20,23 L-9,20 L-7,19 L-4,13 L-2,12 L0,4 Z " fill="#6E26B8" transform="translate(835,395)"/>
<path d="M0,0 L3,0 L6,7 L7,10 L5,10 L2,6 L2,4 L0,4 L1,8 L-1,11 L-5,9 L-6,13 L-9,11 L-5,7 L-2,1 Z " fill="#EEE1F5" transform="translate(640,476)"/>
<path d="M0,0 L1,2 L10,4 L14,6 L14,7 L7,8 L7,15 L5,15 L0,3 Z " fill="#6E17CE" transform="translate(566,616)"/>
<path d="M0,0 L2,3 L-2,4 L-2,8 L1,9 L-3,15 L-6,14 L-7,11 L-9,9 L-6,9 L-6,4 Z " fill="#7A04E0" transform="translate(505,525)"/>
<path d="M0,0 L2,3 L3,8 L5,10 L4,24 L2,24 L1,12 L-4,3 L-5,1 L-1,2 Z " fill="#F4D6FC" transform="translate(505,269)"/>
<path d="M0,0 L5,0 L9,5 L17,8 L16,11 L8,8 L5,8 L-2,3 Z " fill="#ECEAF5" transform="translate(290,552)"/>
<path d="M0,0 L2,0 L3,3 L1,3 L1,5 L3,5 L3,11 L-11,5 L-8,3 Z " fill="#F6E6FA" transform="translate(495,257)"/>
<path d="M0,0 L5,0 L5,2 L-4,5 L-7,6 L-7,8 L-10,8 L-12,14 L-13,16 L-14,26 L-18,26 L-18,24 L-16,23 L-14,12 L-10,6 L-3,1 Z " fill="#742FBA" transform="translate(734,800)"/>
<path d="M0,0 L9,1 L17,7 L21,17 L21,23 L19,19 L19,15 L17,14 L15,12 L13,7 L11,6 L11,4 L3,3 Z " fill="#722FBA" transform="translate(696,800)"/>
<path d="M0,0 L2,0 L2,2 L4,2 L6,8 L6,16 L9,16 L9,14 L11,15 L8,21 L6,21 L0,3 Z " fill="#6914BC" transform="translate(498,431)"/>
<path d="M0,0 L3,3 L9,15 L8,18 L5,15 L2,6 L0,6 L-2,11 L-3,13 L-5,13 L-2,3 Z " fill="#702AC4" transform="translate(506,176)"/>
<path d="M0,0 L2,4 L4,5 L11,6 L6,10 L1,13 L-2,13 Z M2,6 Z " fill="#E4E1EF" transform="translate(353,788)"/>
<path d="M0,0 L2,0 L0,5 L-3,8 L-5,8 L-6,11 L-8,11 L-8,13 L-12,15 L-11,9 L-8,4 L-5,6 L-2,1 Z " fill="#5613B5" transform="translate(382,702)"/>
<path d="M0,0 L3,0 L2,6 L-1,12 L-4,15 L-6,15 L-6,12 L-4,12 L-4,10 L-1,10 L0,4 L-8,5 L-8,7 L-10,7 L-9,3 Z " fill="#6018B7" transform="translate(467,592)"/>
<path d="M0,0 L2,2 L-1,5 L-2,9 L0,9 L2,13 L-1,13 L-10,9 L-14,7 L-5,4 Z " fill="#F7E2FC" transform="translate(190,461)"/>
<path d="M0,0 L9,3 L7,8 L2,12 L-6,13 L-2,11 L1,9 L1,3 Z " fill="#651BC2" transform="translate(360,496)"/>
<path d="M0,0 L2,2 L-1,15 L-5,15 L-5,8 L-2,2 Z " fill="#5D26A9" transform="translate(509,642)"/>
<path d="M0,0 L4,2 L-5,10 L-9,18 L-11,18 L-15,11 L-15,9 L-13,9 L-11,13 L-9,13 L-4,3 L0,2 Z " fill="#6920C6" transform="translate(514,534)"/>
<path d="M0,0 L5,2 L11,5 L11,8 L16,10 L12,12 L10,12 L10,9 L5,9 L3,5 Z " fill="#7416D2" transform="translate(393,512)"/>
<path d="M0,0 L2,0 L3,7 L-1,8 L-1,17 L-4,17 L-9,13 L-2,7 Z " fill="#EEEBEE" transform="translate(501,388)"/>
<path d="M0,0 L2,0 L2,2 L-2,2 L-2,5 L0,6 L-6,8 L-7,12 L-12,17 L-14,18 L-12,14 L-5,2 Z " fill="#6D15C4" transform="translate(424,632)"/>
<path d="M0,0 L5,1 L13,5 L18,12 L14,12 L13,9 L8,8 L8,6 L3,4 L0,2 Z " fill="#6815C3" transform="translate(581,623)"/>
<path d="M0,0 L2,1 L-2,5 L2,7 L2,9 L-3,8 L-8,9 L-8,11 L-14,11 L-10,7 Z " fill="#7013D1" transform="translate(609,494)"/>
<path d="M0,0 L19,0 L31,2 L33,4 L24,4 L13,3 L13,2 L0,1 Z " fill="#5818B6" transform="translate(307,484)"/>
<path d="M0,0 L8,4 L7,6 L4,6 L5,9 L2,9 L-3,7 L-2,2 Z " fill="#EEEBF2" transform="translate(635,736)"/>
<path d="M0,0 L5,1 L7,5 L2,10 L-1,12 L-2,9 L0,9 L-1,1 Z " fill="#EEECF4" transform="translate(535,531)"/>
<path d="M0,0 L3,2 L1,2 L1,4 L14,4 L14,5 L-2,6 L-16,6 L-16,5 L-8,4 L-7,2 Z " fill="#DEDCE9" transform="translate(322,456)"/>
<path d="M0,0 L3,0 L6,6 L1,10 L0,8 L-2,8 L-3,3 Z " fill="#F6F3F3" transform="translate(502,395)"/>
<path d="M0,0 L2,3 L7,18 L6,21 L1,18 L4,15 L2,14 L-1,4 Z " fill="#6425BC" transform="translate(773,849)"/>
<path d="M0,0 L1,0 L2,7 L5,14 L10,17 L15,19 L15,21 L8,20 L3,16 L0,11 Z " fill="#712EB3" transform="translate(308,776)"/>
<path d="M0,0 L2,4 L5,20 L4,24 L0,10 L-2,11 L-2,2 L0,2 Z " fill="#840EE1" transform="translate(506,359)"/>
<path d="M0,0 L2,1 L-4,3 L-4,5 L-15,7 L-17,13 L-18,16 L-20,16 L-19,10 L-17,6 Z " fill="#742ECE" transform="translate(304,767)"/>
<path d="M0,0 L2,0 L0,9 L-5,23 L-6,23 L-6,15 L-4,15 L-3,10 L-1,4 L-6,4 L-2,1 Z " fill="#6418BD" transform="translate(441,624)"/>
<path d="M0,0 L2,0 L7,5 L10,7 L9,11 L2,7 L-3,2 Z " fill="#EDEBF4" transform="translate(227,505)"/>
<path d="M0,0 L8,1 L10,4 L4,9 L0,10 L1,5 L3,1 Z " fill="#8217E6" transform="translate(691,462)"/>
<path d="M0,0 L6,1 L12,5 L16,13 L16,22 L15,22 L14,16 L12,12 L10,7 L2,2 Z " fill="#6E2AB3" transform="translate(291,799)"/>
<path d="M0,0 L4,1 L-7,10 L-11,12 L-13,10 L-9,6 L-6,4 L-2,4 L-2,2 L0,2 Z " fill="#6D17C8" transform="translate(425,659)"/>
<path d="M0,0 L2,2 L3,6 L8,8 L9,10 L18,13 L18,14 L11,14 L2,9 L-1,4 Z " fill="#6A2DAF" transform="translate(721,784)"/>
<path d="M0,0 L13,0 L29,1 L29,2 L8,2 L8,4 L3,3 Z " fill="#702BD0" transform="translate(294,484)"/>
<path d="M0,0 L8,0 L5,3 L-1,5 L-4,9 L-6,9 L-7,12 L-9,11 L-7,7 L-4,4 L-2,4 Z " fill="#722ECB" transform="translate(830,387)"/>
<path d="M0,0 L2,3 L6,16 L7,22 L5,24 L2,16 Z " fill="#6C15C4" transform="translate(507,359)"/>
<path d="M0,0 L6,1 L1,5 L-7,10 L-9,10 L-8,5 L-3,3 L0,3 Z " fill="#E8E4F2" transform="translate(452,735)"/>
<path d="M0,0 L4,2 L7,2 L7,7 L7,10 L-3,4 Z " fill="#ECEDF0" transform="translate(556,725)"/>
<path d="M0,0 L4,4 L8,11 L4,13 L0,13 L-1,10 L2,8 L2,5 L-1,5 Z " fill="#F5F5F6" transform="translate(524,514)"/>
<path d="M0,0 L2,1 L-7,6 L-11,6 L-11,8 L-14,9 L-14,7 L-12,7 L-12,5 L-21,5 L-24,3 L-9,3 Z " fill="#6116BE" transform="translate(675,483)"/>
<path d="M0,0 L2,3 L5,4 L4,8 L7,8 L8,12 L-3,5 L-6,2 Z " fill="#E2DFEA" transform="translate(249,449)"/>
<path d="M0,0 L2,2 L1,7 L-1,7 L-1,13 L-3,17 L-4,23 L-6,23 L-5,15 L-1,1 Z " fill="#6819C2" transform="translate(505,354)"/>
<path d="M0,0 L2,2 L1,9 L-2,15 L-5,18 L-9,17 L-4,12 Z " fill="#D8CEE4" transform="translate(402,653)"/>
<path d="M0,0 L1,0 L4,13 L6,17 L3,16 L0,13 L-4,16 L-1,6 Z " fill="#F2E1FA" transform="translate(837,396)"/>
<path d="M0,0 L1,3 L-6,13 L-7,15 L-9,15 L-10,20 L-15,20 L-9,13 Z " fill="#D9D4EB" transform="translate(480,518)"/>
<path d="M0,0 L8,1 L14,4 L18,9 L20,17 L16,13 L14,9 L13,6 L4,2 Z " fill="#661DAA" transform="translate(175,469)"/>
<path d="M0,0 L2,1 L-2,4 L-3,8 L-5,8 L-6,17 L-8,17 L-9,19 L-9,12 L-5,4 Z " fill="#742CB2" transform="translate(318,800)"/>
<path d="M0,0 L13,0 L13,1 L2,2 L-3,4 L-12,5 L-11,2 Z " fill="#5E18BC" transform="translate(686,459)"/>
<path d="M0,0 L2,0 L1,4 L-6,21 L-8,18 L-7,14 L-5,14 L-2,5 Z " fill="#6F2CCE" transform="translate(539,259)"/>
<path d="M0,0 L2,2 L9,21 L8,24 L5,17 L3,15 L4,13 L2,13 L3,9 L1,9 Z " fill="#6722BE" transform="translate(763,823)"/>
<path d="M0,0 L1,4 L-2,13 L-9,19 L-15,20 L-11,17 L-5,13 L-2,6 Z " fill="#7637BD" transform="translate(306,777)"/>
<path d="M0,0 L2,3 L2,5 L-5,8 L-10,7 L-5,3 Z " fill="#EAE5F3" transform="translate(457,695)"/>
<path d="M0,0 L1,0 L1,6 L0,8 L5,8 L0,12 L-5,13 L-4,8 L-2,8 L-1,2 Z " fill="#5F18B5" transform="translate(456,599)"/>
<path d="M0,0 L1,0 L1,8 L-2,14 L-6,12 L-7,10 L-5,5 L-3,7 Z M-3,9 L-2,11 Z " fill="#FBFAF1" transform="translate(442,334)"/>
<path d="M0,0 L1,3 L-4,13 L-6,13 L-9,9 L-8,7 L-6,7 Z " fill="#7329CA" transform="translate(514,316)"/>
<path d="M0,0 L2,0 L4,8 L2,10 L1,13 L0,11 L-2,11 L-1,3 Z " fill="#E7E4EC" transform="translate(370,495)"/>
<path d="M0,0 L6,0 L6,2 L4,2 L4,5 L-1,6 L0,8 L-4,8 L-4,3 L-2,3 L-2,1 Z " fill="#7B0FDC" transform="translate(578,477)"/>
<path d="M0,0 L9,6 L12,8 L6,10 L2,10 L2,8 L4,8 L4,5 L0,3 Z " fill="#F7EBF7" transform="translate(514,252)"/>
<path d="M0,0 L2,0 L3,3 L-1,4 L-4,9 L-10,11 L-8,7 L-3,2 Z " fill="#EFEDF4" transform="translate(407,726)"/>
<path d="M0,0 L5,1 L6,0 L9,0 L9,3 L12,4 L10,7 L4,5 Z " fill="#6A14CE" transform="translate(623,687)"/>
<path d="M0,0 L4,1 L7,10 L6,13 L3,12 Z " fill="#7410DA" transform="translate(572,632)"/>
<path d="M0,0 L3,1 L4,4 L-1,6 L-9,6 L-12,3 L-10,3 L-9,1 L-9,3 L-1,4 Z " fill="#631BBD" transform="translate(436,495)"/>
<path d="M0,0 L9,1 L14,5 L17,12 L15,16 L14,13 L13,8 L9,4 L0,1 Z " fill="#581E97" transform="translate(621,492)"/>
<path d="M0,0 L8,0 L8,1 L2,2 L1,7 L-8,2 L-8,1 Z " fill="#DDD8EA" transform="translate(225,433)"/>
<path d="M0,0 L3,3 L3,5 L6,6 L4,17 L3,17 L1,6 L-1,1 Z " fill="#F7DFFE" transform="translate(304,803)"/>
<path d="M0,0 L1,0 L0,8 L-2,17 L-3,20 L-5,20 L-6,23 L-7,21 Z " fill="#6D29C8" transform="translate(282,786)"/>
<path d="M0,0 L1,0 L1,9 L-2,16 L-7,21 L-10,20 L-8,20 L-8,18 L-6,18 L-5,15 L-3,15 Z " fill="#6727AB" transform="translate(715,775)"/>
<path d="M0,0 L6,2 L21,10 L19,11 L10,7 L4,5 L4,3 L0,2 Z " fill="#6727C5" transform="translate(694,753)"/>
<path d="M0,0 L13,7 L11,10 L7,8 L2,6 L2,4 L0,3 Z " fill="#E7E6F1" transform="translate(620,727)"/>
<path d="M0,0 L8,2 L6,13 L4,13 L2,4 Z " fill="#F6E4FC" transform="translate(833,430)"/>
<path d="M0,0 L2,0 L0,20 L-2,17 L-2,12 L-1,11 L0,4 L-6,3 L-3,1 Z " fill="#6223C1" transform="translate(335,755)"/>
<path d="M0,0 L4,1 L7,1 L7,4 L5,6 L7,9 L4,9 L-1,3 Z " fill="#EAE9F0" transform="translate(475,544)"/>
<path d="M0,0 L2,1 L0,3 L0,9 L-6,9 L-7,5 Z " fill="#F9F9F1" transform="translate(369,750)"/>
<path d="M0,0 L2,2 L4,8 L4,16 L1,16 L1,9 L0,4 Z M-1,8 Z " fill="#5617A7" transform="translate(508,621)"/>
<path d="M0,0 L3,1 L-11,12 L-13,13 L-14,10 L-8,6 Z " fill="#6E2CCC" transform="translate(884,414)"/>
<path d="M0,0 L1,0 L1,6 L-3,12 L-4,16 L-6,16 L-6,18 L-8,17 Z " fill="#5C16B9" transform="translate(383,687)"/>
<path d="M0,0 L1,2 L3,2 L4,6 L2,9 L-2,12 L-3,9 Z " fill="#E9E8EB" transform="translate(318,681)"/>
<path d="M0,0 L10,5 L8,7 L2,10 L0,10 L0,8 L2,8 L1,4 Z " fill="#D5CEE4" transform="translate(619,663)"/>
<path d="M0,0 L2,0 L1,7 L-4,9 L-6,6 L-3,3 L-1,3 Z " fill="#FBFCF3" transform="translate(609,662)"/>
<path d="M0,0 L2,2 L-9,10 L-11,7 L-6,3 L-1,3 Z " fill="#661AC5" transform="translate(706,463)"/>
<path d="M0,0 L3,0 L3,2 L-3,6 L-5,6 L-6,2 L-12,2 L-12,1 Z " fill="#6325C7" transform="translate(714,457)"/>
<path d="M0,0 L5,3 L11,7 L7,9 L5,5 L0,7 L-1,2 Z " fill="#E9E7EF" transform="translate(318,534)"/>
<path d="M0,0 L2,0 L6,10 L8,14 L5,13 L2,9 L0,9 Z " fill="#7423C5" transform="translate(503,517)"/>
<path d="M0,0 L8,4 L12,8 L5,8 L1,5 L4,4 L0,2 Z " fill="#661BC0" transform="translate(404,518)"/>
<path d="M0,0 L26,0 L26,2 L21,5 L21,2 L0,1 Z " fill="#692DBD" transform="translate(899,382)"/>
<path d="M0,0 L10,3 L10,5 L1,9 L-2,9 L1,6 L3,4 L0,2 Z " fill="#F5E1FB" transform="translate(727,795)"/>
<path d="M0,0 L2,1 L4,12 L2,13 L2,11 L-1,12 Z " fill="#F2DEF9" transform="translate(716,776)"/>
<path d="M0,0 L6,1 L6,4 L10,3 L9,6 L4,6 L-2,2 Z " fill="#EFECF3" transform="translate(236,444)"/>
<path d="M0,0 L4,1 L-7,7 L-8,2 Z " fill="#E4DFF0" transform="translate(427,753)"/>
<path d="M0,0 L6,1 L6,4 L8,4 L8,6 L-4,4 L0,2 Z " fill="#711CC5" transform="translate(615,489)"/>
<path d="M0,0 L2,0 L2,9 L1,12 L3,12 L2,15 L-2,10 L-2,7 L0,7 L-1,4 Z " fill="#833AD6" transform="translate(199,448)"/>
<path d="M0,0 L10,0 L5,6 L0,4 L-2,2 L0,2 Z " fill="#EDEAF3" transform="translate(548,722)"/>
<path d="M0,0 L2,3 L-3,6 L-9,8 L-13,9 L-8,5 Z " fill="#E2DDF0" transform="translate(441,705)"/>
<path d="M0,0 L7,0 L5,3 L0,6 L-3,6 L-1,1 Z " fill="#6510CF" transform="translate(387,681)"/>
<path d="M0,0 L3,0 L2,6 L0,8 L0,6 L-4,9 L-6,8 L-3,5 L-1,1 Z " fill="#E4E0F0" transform="translate(361,653)"/>
<path d="M0,0 L7,0 L6,6 L4,7 L4,3 L-7,4 L-5,2 Z " fill="#7314D1" transform="translate(433,628)"/>
<path d="M0,0 L2,0 L4,7 L-1,8 L-2,10 L-4,10 L-2,4 Z " fill="#5E19B4" transform="translate(502,610)"/>
<path d="M0,0 L0,3 L-6,4 L-7,7 L-9,7 L-8,10 L-10,12 L-11,5 Z " fill="#6517BC" transform="translate(654,470)"/>
<path d="M0,0 L4,1 L-4,4 L-8,8 L-12,7 L-7,3 Z " fill="#6C2BB6" transform="translate(856,421)"/>
<path d="M0,0 L7,1 L1,8 L-1,10 L-1,1 Z " fill="#F4E8F9" transform="translate(311,799)"/>
<path d="M0,0 L2,0 L3,5 L1,6 L-8,4 L-8,2 Z " fill="#F0D0FA" transform="translate(629,488)"/>
<path d="M0,0 L3,0 L3,2 L1,4 L0,9 L-4,13 L-5,11 Z " fill="#E5E3EE" transform="translate(498,483)"/>
<path d="M0,0 L2,1 L1,3 L4,4 L4,6 L-7,4 L-7,2 Z " fill="#EFD2FA" transform="translate(823,418)"/>
<path d="M0,0 L6,1 L5,3 L3,3 L3,1 Z M-2,2 L3,3 L4,8 L-3,4 Z " fill="#E9E7F2" transform="translate(625,767)"/>
<path d="M0,0 L7,3 L3,5 L2,14 L1,14 L0,8 Z " fill="#5B25B9" transform="translate(684,747)"/>
<path d="M0,0 L10,5 L7,7 L2,5 L0,6 Z " fill="#E5E2EE" transform="translate(643,741)"/>
<path d="M0,0 L2,2 L1,11 L-3,11 Z " fill="#E7E3EF" transform="translate(311,701)"/>
<path d="M0,0 L4,5 L6,9 L5,12 L-1,7 Z " fill="#5A1ABC" transform="translate(639,695)"/>
<path d="M0,0 L4,2 L2,11 L0,11 L-2,4 Z " fill="#D6D3DF" transform="translate(612,675)"/>
<path d="M0,0 L3,2 L2,5 L-1,4 L-1,6 L-9,5 L-5,3 Z " fill="#E2DDEF" transform="translate(500,635)"/>
<path d="M0,0 L8,0 L7,6 L-1,2 Z " fill="#811BE4" transform="translate(308,487)"/>
<path d="M0,0 L10,1 L11,3 L2,5 L2,2 L-1,1 Z " fill="#F3DBFB" transform="translate(849,418)"/>
<path d="M0,0 L4,4 L6,8 L6,13 L4,11 L4,8 L0,6 L-1,1 Z " fill="#6F25C0" transform="translate(500,271)"/>
<path d="M0,0 L4,1 L4,4 L3,8 L-2,6 L0,5 L-1,1 Z " fill="#F1EFEE" transform="translate(535,711)"/>
<path d="M0,0 L8,4 L3,8 L2,5 L-1,4 Z " fill="#E4E1EB" transform="translate(552,687)"/>
<path d="M0,0 L2,0 L1,5 L-2,10 L-5,12 L-4,6 L-1,2 Z " fill="#6321AE" transform="translate(609,653)"/>
<path d="M0,0 L1,4 L-4,10 L-7,9 L-5,4 L0,3 Z " fill="#6712C2" transform="translate(434,649)"/>
<path d="M0,0 L1,0 L1,13 L-2,21 L-4,20 L-4,18 L-2,18 L-2,11 L0,11 Z " fill="#7422B9" transform="translate(506,228)"/>
<path d="M0,0 L2,0 L2,2 L-2,6 L-5,6 L-5,9 L-9,7 L-6,4 Z " fill="#E8E2F0" transform="translate(488,675)"/>
<path d="M0,0 L1,2 L3,3 L-4,6 L-5,11 L-7,10 L-6,5 L-2,1 Z " fill="#5D14B5" transform="translate(624,672)"/>
<path d="M0,0 L4,1 L5,6 L-5,2 L-5,1 Z " fill="#D2CCE3" transform="translate(600,666)"/>
<path d="M0,0 L2,3 L5,8 L9,11 L3,11 L1,10 L1,4 L-1,3 Z " fill="#F0DDF8" transform="translate(404,661)"/>
<path d="M0,0 L5,2 L10,6 L2,6 Z " fill="#DCDAE7" transform="translate(513,664)"/>
<path d="M0,0 L4,1 L5,3 L13,5 L11,8 L3,4 Z " fill="#6121C3" transform="translate(591,658)"/>
<path d="M0,0 L2,0 L5,11 L3,12 L0,7 Z " fill="#D3CDE5" transform="translate(611,648)"/>
<path d="M0,0 L2,1 L5,6 L4,11 L1,7 L-2,1 Z " fill="#E5E5EC" transform="translate(486,559)"/>
<path d="M0,0 L1,2 L-3,10 L-5,10 L-9,3 L-9,1 L-7,1 L-5,5 L-3,5 Z " fill="#5B1EAC" transform="translate(508,542)"/>
<path d="M0,0 L11,2 L10,8 L1,2 Z " fill="#E4E1ED" transform="translate(251,527)"/>
<path d="M0,0 L2,0 L3,3 L6,5 L3,6 L-4,4 L-2,3 L-2,1 Z " fill="#6F11D6" transform="translate(599,657)"/>
<path d="M0,0 L7,1 L12,5 L12,7 L6,5 L0,1 Z " fill="#5D19BA" transform="translate(323,503)"/>
<path d="M0,0 L3,1 L-4,7 L-7,11 L-7,6 L-4,5 L-4,2 Z " fill="#EBD6F7" transform="translate(204,470)"/>
<path d="M0,0 L5,2 L7,11 L3,7 L0,2 Z " fill="#752ACC" transform="translate(492,302)"/>
<path d="M0,0 L9,2 L15,6 L14,8 L12,7 L8,5 L0,1 Z " fill="#6F20C0" transform="translate(483,262)"/>
<path d="M0,0 L1,0 L2,7 L2,9 L2,11 L0,11 L-1,13 L-2,5 Z " fill="#7229C6" transform="translate(472,256)"/>
<path d="M0,0 L2,0 L3,3 L1,4 L-7,4 L-7,6 L-11,4 Z " fill="#F0DBFA" transform="translate(495,257)"/>
<path d="M0,0 L5,0 L9,7 L4,5 L-1,1 Z " fill="#E2DFED" transform="translate(517,705)"/>
<path d="M0,0 L5,1 L5,6 L-1,4 Z " fill="#780CDB" transform="translate(621,676)"/>
<path d="M0,0 L5,0 L1,7 L-1,8 L-2,5 L-2,2 Z " fill="#E5E6F0" transform="translate(529,543)"/>
<path d="M0,0 L1,0 L2,6 L-2,8 L-4,12 L-7,11 L-1,2 Z " fill="#6517AB" transform="translate(502,521)"/>
<path d="M0,0 L2,1 L-3,9 L-7,10 L-5,4 L-2,4 L-1,2 L-3,1 Z " fill="#54159E" transform="translate(636,478)"/>
<path d="M0,0 L3,0 L2,4 L-6,5 L-7,3 Z " fill="#6A16C7" transform="translate(663,466)"/>
<path d="M0,0 L0,3 L-3,7 L-1,11 L-6,10 L-8,8 Z " fill="#5B19B7" transform="translate(787,431)"/>
<path d="M0,0 L2,2 L2,4 L11,5 L13,7 L10,8 L1,6 L-2,3 Z " fill="#6B1BB9" transform="translate(849,412)"/>
<path d="M0,0 L3,1 L4,6 L-1,4 L-4,3 L-4,1 Z " fill="#DACFEC" transform="translate(391,671)"/>
<path d="M0,0 L7,4 L7,7 L0,6 L0,3 Z " fill="#E5E3F2" transform="translate(310,528)"/>
<path d="M0,0 L2,1 L-1,6 L-5,7 L-5,4 Z " fill="#7E39CF" transform="translate(206,471)"/>
<path d="M0,0 L9,0 L5,3 L3,3 L1,5 L-2,3 L-2,1 Z " fill="#6427B9" transform="translate(125,442)"/>
<path d="M0,0 L2,0 L-1,10 L-3,12 L-4,5 L-1,3 Z " fill="#6F1BC4" transform="translate(512,431)"/>
<path d="M0,0 L2,0 L3,7 L-1,8 L-1,10 L-4,9 L-1,5 Z " fill="#E2DAF4" transform="translate(501,388)"/>
<path d="M0,0 L3,4 L6,13 L4,13 L1,7 L-1,4 Z " fill="#6C2AC2" transform="translate(515,194)"/>
<path d="M0,0 L2,2 L3,6 L8,8 L6,10 L2,9 L-1,4 Z " fill="#6E2DBC" transform="translate(721,784)"/>
<path d="M0,0 L2,2 L6,12 L5,14 L1,6 L1,4 L-1,4 Z " fill="#6421BD" transform="translate(748,785)"/>
<path d="M0,0 L5,5 L3,9 L0,6 L-1,2 Z " fill="#6612CC" transform="translate(619,678)"/>
<path d="M0,0 L1,2 L10,4 L7,5 L4,4 L3,8 L1,6 Z " fill="#621FB6" transform="translate(566,616)"/>
<path d="M0,0 L1,2 L3,2 L2,7 L0,9 L-2,2 Z " fill="#D8D7E6" transform="translate(503,593)"/>
<path d="M0,0 L4,2 L2,5 L-3,4 L-4,2 Z " fill="#E0DEEB" transform="translate(258,490)"/>
<path d="M0,0 L1,0 L0,10 L-3,15 L-4,15 L-4,10 L-2,10 Z " fill="#6A28AC" transform="translate(193,447)"/>
<path d="M0,0 L1,0 L2,9 L3,12 L1,16 L-1,9 Z " fill="#8839D9" transform="translate(509,286)"/>
<path d="M0,0 L4,5 L5,9 L2,9 L0,6 L-2,7 Z " fill="#D0CBE7" transform="translate(458,288)"/>
<path d="M0,0 L2,3 L3,12 L1,11 L-1,4 Z " fill="#741EC4" transform="translate(773,849)"/>
<path d="M0,0 L1,0 L1,12 L0,17 L-1,17 L-2,11 Z " fill="#6826C0" transform="translate(332,783)"/>
<path d="M0,0 L3,1 L0,10 L-2,8 L-1,2 Z M-3,8 Z " fill="#E7E5F2" transform="translate(342,712)"/>
<path d="M0,0 L2,0 L1,10 L-1,12 L-2,3 L0,3 Z " fill="#E6DFF5" transform="translate(372,518)"/>
<path d="M0,0 L5,2 L6,4 L2,7 L2,4 L0,4 Z M0,7 L2,7 L2,9 L0,9 Z " fill="#E9E7EF" transform="translate(263,494)"/>
<path d="M0,0 L2,0 L2,2 L5,2 L5,0 L7,1 L4,7 L2,7 Z " fill="#641CBF" transform="translate(502,445)"/>
<path d="M0,0 L3,3 L4,8 L3,10 L1,10 L0,6 L1,4 L-1,3 Z " fill="#DFDBEC" transform="translate(477,320)"/>
<path d="M0,0 L3,2 L5,4 L10,7 L11,9 L6,7 L0,3 Z " fill="#6828BD" transform="translate(692,814)"/>
<path d="M0,0 L4,1 L-6,7 L-7,5 L-6,3 L-1,1 Z " fill="#DBD5E8" transform="translate(472,725)"/>
<path d="M0,0 L5,1 L0,5 L-4,5 L-2,4 L-2,2 Z " fill="#E4E2EE" transform="translate(505,703)"/>
<path d="M0,0 L2,0 L0,5 L-4,8 L-3,2 Z " fill="#5D0EBA" transform="translate(382,702)"/>
<path d="M0,0 L1,2 L-1,6 L-4,9 L-8,8 L-3,3 Z " fill="#E0DBEE" transform="translate(401,662)"/>
<path d="M0,0 L3,1 L7,3 L7,6 L0,4 L-1,1 Z " fill="#6512C5" transform="translate(545,599)"/>
<path d="M0,0 L6,4 L5,7 L0,5 L-2,2 Z " fill="#EFEBF6" transform="translate(343,591)"/>
<path d="M0,0 L10,3 L9,6 L0,3 Z " fill="#F2F3EE" transform="translate(297,557)"/>
<path d="M0,0 L3,1 L3,4 L4,10 L-1,6 Z " fill="#F7F6ED" transform="translate(471,533)"/>
<path d="M0,0 L5,1 L6,5 L-3,2 Z M5,0 Z " fill="#F4F3F2" transform="translate(312,534)"/>
<path d="M0,0 L4,2 L2,6 L-1,8 L-1,1 Z " fill="#EDECF3" transform="translate(276,503)"/>
<path d="M0,0 L6,2 L11,5 L7,6 L2,4 L-1,1 Z " fill="#5F17C4" transform="translate(348,491)"/>
<path d="M0,0 L7,2 L10,4 L9,7 L0,1 Z " fill="#611FC2" transform="translate(305,491)"/>
<path d="M0,0 L3,1 L-3,5 L-9,5 L-6,3 L-5,1 L-3,2 Z " fill="#6D25B2" transform="translate(186,462)"/>
<path d="M0,0 L4,2 L-1,6 L-6,6 L-1,1 Z " fill="#6727C8" transform="translate(837,451)"/>
<path d="M0,0 L3,4 L2,9 L0,7 L-2,8 L-1,3 Z " fill="#E6E1F0" transform="translate(420,379)"/>
<path d="M0,0 L3,0 L0,9 L-2,8 L-1,1 Z " fill="#E3E0EC" transform="translate(455,380)"/>
<path d="M0,0 L1,4 L-2,13 L-4,12 L-1,3 Z " fill="#7532CD" transform="translate(499,191)"/>
<path d="M0,0 L6,1 L8,4 L11,5 L11,7 L6,5 L0,1 Z " fill="#6827C1" transform="translate(716,831)"/>
<path d="M0,0 L3,1 L-7,7 L-9,6 L-6,3 Z " fill="#6B2BC2" transform="translate(312,823)"/>
<path d="M0,0 L2,4 L2,9 L-3,9 L-2,6 Z " fill="#E6E3EF" transform="translate(664,772)"/>
<path d="M0,0 L4,1 L-4,7 L-6,4 L-2,4 L-2,2 L0,2 Z " fill="#6116BA" transform="translate(425,659)"/>
<path d="M0,0 L7,4 L7,7 L3,6 L0,2 Z " fill="#E9E7F2" transform="translate(288,512)"/>
<path d="M0,0 L3,0 L3,2 L6,3 L4,5 L0,5 L-1,2 Z " fill="#7B10E1" transform="translate(427,493)"/>
<path d="M0,0 L3,1 L4,4 L4,14 L3,14 L1,3 Z " fill="#6A24B5" transform="translate(833,433)"/>
<path d="M0,0 L2,3 L1,7 L-2,6 L-5,1 L-1,2 Z " fill="#F5E7F8" transform="translate(505,269)"/>
<path d="M0,0 L2,1 L-1,6 L-6,6 L-5,3 Z " fill="#772DC5" transform="translate(522,265)"/>
<path d="M0,0 L1,0 L1,8 L-1,8 L-1,14 L-2,14 L-2,4 Z " fill="#8242DD" transform="translate(333,775)"/>
<path d="M0,0 L2,4 L1,5 L4,7 L-2,9 Z " fill="#D4CCE6" transform="translate(296,744)"/>
<path d="M0,0 L3,1 L2,6 L-2,8 Z " fill="#E9E5F1" transform="translate(301,730)"/>
<path d="M0,0 L6,4 L2,5 L-2,4 Z " fill="#F5F2FA" transform="translate(550,718)"/>
<path d="M0,0 L5,2 L9,5 L4,6 L4,3 L0,2 Z " fill="#DDDBE9" transform="translate(568,697)"/>
<path d="M0,0 L3,4 L5,9 L0,7 L-1,3 Z " fill="#5D16BC" transform="translate(632,683)"/>
<path d="M0,0 L6,1 L2,3 L-4,6 L-4,3 L-1,3 Z " fill="#D0C6E5" transform="translate(413,672)"/>
<path d="M0,0 L4,2 L7,5 L5,6 L-1,4 Z " fill="#E2E0EC" transform="translate(375,576)"/>
<path d="M0,0 L6,1 L6,6 L0,2 Z " fill="#6B18C6" transform="translate(418,492)"/>
<path d="M0,0 L2,0 L4,5 L3,7 L1,7 L0,3 L-2,2 L0,2 Z " fill="#EFEEEE" transform="translate(439,413)"/>
<path d="M0,0 L5,2 L0,7 L-2,8 L-1,4 Z " fill="#E6E0F7" transform="translate(507,398)"/>
<path d="M0,0 L2,0 L6,8 L6,10 L3,9 L1,2 L-1,1 Z " fill="#7630CF" transform="translate(530,229)"/>
<path d="M0,0 L3,1 L-7,6 L-7,3 Z " fill="#7931CE" transform="translate(282,839)"/>
<path d="M0,0 L2,3 L2,12 L1,12 L0,6 L-2,2 Z " fill="#7326C0" transform="translate(305,809)"/>
<path d="M0,0 L1,2 L3,3 L1,9 L-2,9 Z " fill="#E6E2F0" transform="translate(326,658)"/>
<path d="M0,0 L3,2 L1,7 L-2,7 Z " fill="#EBE9F4" transform="translate(348,598)"/>
<path d="M0,0 L4,1 L6,5 L3,5 L-3,2 Z " fill="#EDD7F7" transform="translate(186,469)"/>
<path d="M0,0 L2,3 L0,5 L-5,4 L-6,2 Z " fill="#E9E5EF" transform="translate(249,449)"/>
<path d="M0,0 L7,4 L3,8 L2,5 Z " fill="#F7ECFB" transform="translate(843,413)"/>
<path d="M0,0 L3,2 L2,5 L-3,6 L-3,3 L-1,3 Z " fill="#FBF8FA" transform="translate(504,396)"/>
<path d="M0,0 L8,0 L6,2 L-2,3 L-2,1 Z " fill="#7128B6" transform="translate(485,258)"/>
<path d="M0,0 L3,1 L4,5 L8,6 L6,8 L0,3 Z " fill="#9147E6" transform="translate(515,248)"/>
<path d="M0,0 L3,4 L5,8 L4,11 L1,8 Z " fill="#651FB9" transform="translate(510,183)"/>
<path d="M0,0 L2,3 L2,5 L4,6 L-1,8 L-2,6 Z " fill="#6529BB" transform="translate(263,845)"/>
<path d="M0,0 L2,2 L-4,8 L-7,7 L-5,7 L-5,5 L-3,5 L-2,2 L0,2 Z " fill="#6E2DB5" transform="translate(712,788)"/>
<path d="M0,0 Z M-1,1 L0,3 L4,4 L-2,7 L-3,3 Z " fill="#D9D4E6" transform="translate(382,778)"/>
<path d="M0,0 L3,1 L4,12 L3,12 Z " fill="#6218C4" transform="translate(572,632)"/>
<path d="M0,0 L2,0 L0,4 L-3,7 L-5,7 L-3,3 Z " fill="#F3DCFD" transform="translate(496,528)"/>
<path d="M0,0 L4,1 L-3,5 L-8,5 L-4,3 Z " fill="#571F9E" transform="translate(362,504)"/>
<path d="M0,0 L2,1 L-5,8 L-6,6 L-2,1 Z " fill="#9D74DC" transform="translate(310,433)"/>
<path d="M0,0 L10,1 L13,4 L8,3 L0,1 Z " fill="#6B21A6" transform="translate(815,422)"/>
<path d="M0,0 L4,2 L5,8 L0,4 Z " fill="#7931C1" transform="translate(842,408)"/>
<path d="M0,0 L5,0 L6,2 L-2,4 Z " fill="#F6DBFC" transform="translate(526,260)"/>
<path d="M0,0 L7,1 L9,3 L7,5 L0,1 Z " fill="#702BCB" transform="translate(706,825)"/>
<path d="M0,0 L2,4 L1,10 L-1,10 Z " fill="#DED8EC" transform="translate(357,762)"/>
<path d="M0,0 L2,1 L-1,5 L-7,6 L-3,2 Z " fill="#D6D1E7" transform="translate(369,750)"/>
<path d="M0,0 L3,0 L4,5 L-1,3 L-3,1 Z " fill="#DEDCE9" transform="translate(595,751)"/>
<path d="M0,0 L6,0 L8,2 L5,3 L-1,2 Z " fill="#F3F2F0" transform="translate(648,747)"/>
<path d="M0,0 L1,0 L1,5 L-4,6 L-4,2 L0,4 Z M-2,2 Z " fill="#EAE5F2" transform="translate(307,743)"/>
<path d="M0,0 L3,0 L4,4 L-1,5 Z " fill="#ECEBED" transform="translate(298,739)"/>
<path d="M0,0 L1,0 L0,9 L-3,9 L-2,5 Z " fill="#7711D4" transform="translate(434,643)"/>
<path d="M0,0 L7,1 L3,3 L-2,5 Z " fill="#CCC2E6" transform="translate(512,638)"/>
<path d="M0,0 L5,1 L9,5 L6,5 L0,1 Z " fill="#E4E0F0" transform="translate(327,583)"/>
<path d="M0,0 L1,0 L3,10 L-1,9 Z " fill="#ECC8F8" transform="translate(194,447)"/>
<path d="M0,0 L2,1 L0,10 L-2,6 L-1,1 Z " fill="#E7E3F8" transform="translate(503,407)"/>
<path d="M0,0 L3,4 L0,7 L-2,7 Z " fill="#E5E2EF" transform="translate(437,339)"/>
<path d="M0,0 L3,0 L4,2 L6,2 L5,6 L3,6 L0,2 Z " fill="#6118BA" transform="translate(505,323)"/>
<path d="M0,0 L3,3 L5,2 L6,6 L4,8 L0,2 Z " fill="#732BC9" transform="translate(483,287)"/>
<path d="M0,0 L6,1 L6,3 L8,4 L0,3 Z " fill="#7B34C6" transform="translate(523,256)"/>
<path d="M0,0 L6,1 L7,3 L3,4 L3,2 L-1,1 Z " fill="#E6E5E8" transform="translate(398,767)"/>
<path d="M0,0 L5,1 L5,5 L0,3 Z " fill="#DEDBED" transform="translate(584,745)"/>
<path d="M0,0 L2,1 L1,4 L-4,6 L-6,4 Z " fill="#E2DDEE" transform="translate(477,682)"/>
<path d="M0,0 L2,0 L3,5 L1,7 L-1,1 Z " fill="#ECEDEE" transform="translate(524,549)"/>
<path d="M0,0 L3,1 L-2,6 L-3,3 L-1,3 Z " fill="#E0DEEF" transform="translate(536,537)"/>
<path d="M0,0 L4,4 L5,7 L3,7 L2,5 L-1,5 Z " fill="#DAD7EC" transform="translate(524,514)"/>
<path d="M0,0 L2,1 L0,7 L-3,6 Z " fill="#EFEDF8" transform="translate(487,506)"/>
<path d="M0,0 L2,1 L-3,6 L-7,5 Z " fill="#6918B8" transform="translate(609,494)"/>
<path d="M0,0 L2,0 L2,2 L4,2 L4,8 L3,5 L1,5 Z " fill="#7417C8" transform="translate(498,431)"/>
<path d="M0,0 L3,1 L-4,6 L-6,4 Z " fill="#6825C5" transform="translate(884,414)"/>
<path d="M0,0 L1,0 L2,10 L-1,9 Z " fill="#F2CFFB" transform="translate(837,396)"/>
<path d="M0,0 L2,0 L0,6 L-2,8 L-2,2 Z " fill="#DEDBEE" transform="translate(464,362)"/>
<path d="M0,0 L3,0 L2,4 L-2,6 Z " fill="#E3E2EE" transform="translate(447,315)"/>
<path d="M0,0 Z " fill="#410A8B" transform="translate(502,652)"/>
<path d="M0,0 Z " fill="#31147F" transform="translate(645,707)"/>
<path d="M0,0 Z " fill="#360A78" transform="translate(501,651)"/>
<path d="M0,0 Z " fill="#29187B" transform="translate(324,585)"/>
<path d="M0,0 Z " fill="#3B2998" transform="translate(618,401)"/>
<path d="M0,0 Z " fill="#1F1077" transform="translate(617,399)"/>
</svg>
